<?xml version="1.0" encoding="UTF-8"?>
<svg width="1975" height="868" viewBox="0 0 1975 868"
  xml:space="preserve"
  version="1.1"
  xmlns="http://www.w3.org/2000/svg">

<title>Graphic of net "C:\Users\pasca\Documents\NETICA EXAMPLES\THE TENNIS MATCH PUZZLE2\THE TENNIS MATCH PUZZLE 2" generated by BerckerP using Netica 7.01 on Mar 03, 2026 at 04:05:45 UTC.</title>

<polygon points="1442.64,209.103 1438.51,202.251 1450,200" fill="#000000" stroke="none"/>
<polyline points="1260,312 1441,205" stroke="#000000" stroke-width="1" fill="none"/>
<polygon points="1559.45,202.452 1555.2,209.231 1548,200" fill="#000000" stroke="none"/>
<polyline points="1734,318 1557,206" stroke="#000000" stroke-width="1" fill="none"/>
<polygon points="1472,570 1480,570 1476,581" fill="#000000" stroke="none"/>
<polyline points="1734,318 1476,522 1476,571" stroke="#000000" stroke-width="1" fill="none"/>
<polygon points="1256,570 1264,570 1260,581" fill="#000000" stroke="none"/>
<polyline points="1260,312 1260,571" stroke="#000000" stroke-width="1" fill="none"/>
<polygon points="1682,570 1690,570 1686,581" fill="#000000" stroke="none"/>
<polyline points="1260,312 1602,552 1686,552 1686,571" stroke="#000000" stroke-width="1" fill="none"/>
<polygon points="1488.49,752.852 1492.56,745.963 1500,755" fill="#000000" stroke="none"/>
<polyline points="1260,612 1491,750" stroke="#000000" stroke-width="1" fill="none"/>
<polygon points="1518.51,746.008 1526.03,743.295 1526,755" fill="#000000" stroke="none"/>
<polyline points="1476,612 1522,745" stroke="#000000" stroke-width="1" fill="none"/>
<polygon points="1564.34,744.128 1570.31,749.453 1560,755" fill="#000000" stroke="none"/>
<polyline points="1686,612 1567,747" stroke="#000000" stroke-width="1" fill="none"/>
<polygon points="1256,721 1264,721 1260,732" fill="#000000" stroke="none"/>
<polyline points="1260,612 1260,722" stroke="#000000" stroke-width="1" fill="none"/>
<polygon points="1277.68,720.3 1285.27,722.829 1278,732" fill="#000000" stroke="none"/>
<polyline points="1476,612 1290,696 1281,722" stroke="#000000" stroke-width="1" fill="none"/>
<polygon points="1302.77,720.629 1309.43,725.066 1300,732" fill="#000000" stroke="none"/>
<polyline points="1686,612 1320,702 1306,723" stroke="#000000" stroke-width="1" fill="none"/>
<polygon points="422.643,209.103 418.514,202.251 430,200" fill="#000000" stroke="none"/>
<polyline points="240,312 421,205" stroke="#000000" stroke-width="1" fill="none"/>
<polygon points="538.436,202.492 534.164,209.256 527,200" fill="#000000" stroke="none"/>
<polyline points="714,318 536,206" stroke="#000000" stroke-width="1" fill="none"/>
<polygon points="452,570 460,570 456,581" fill="#000000" stroke="none"/>
<polyline points="714,318 456,540 456,571" stroke="#000000" stroke-width="1" fill="none"/>
<polygon points="662,576 670,576 666,587" fill="#000000" stroke="none"/>
<polyline points="240,312 570,558 666,558 666,577" stroke="#000000" stroke-width="1" fill="none"/>
<polygon points="457.584,758.416 461.91,751.687 469,761" fill="#000000" stroke="none"/>
<polyline points="240,612 460,755" stroke="#000000" stroke-width="1" fill="none"/>
<polygon points="498.657,751.885 506.226,749.297 506,761" fill="#000000" stroke="none"/>
<polyline points="456,612 503,751" stroke="#000000" stroke-width="1" fill="none"/>
<polygon points="547.226,750.085 553.25,755.349 543,761" fill="#000000" stroke="none"/>
<polyline points="666,618 550,753" stroke="#000000" stroke-width="1" fill="none"/>
<polygon points="236,727 244,727 240,738" fill="#000000" stroke="none"/>
<polyline points="240,612 240,728" stroke="#000000" stroke-width="1" fill="none"/>
<polygon points="259.684,726.3 267.273,728.829 260,738" fill="#000000" stroke="none"/>
<polyline points="456,612 270,708 263,728" stroke="#000000" stroke-width="1" fill="none"/>
<polygon points="278.229,726.51 285.089,730.626 276,738" fill="#000000" stroke="none"/>
<polyline points="666,618 294,708 281,729" stroke="#000000" stroke-width="1" fill="none"/>
<polygon points="236,570 244,570 240,581" fill="#000000" stroke="none"/>
<polyline points="240,312 240,571" stroke="#000000" stroke-width="1" fill="none"/>
<g id="Carla_Str">
<rect x="1149" y="116" width="222" height="391" fill="#f8eed2" stroke-width="0"/>
<text x="1226" y="135" font-family="Arial" font-size="15" font-weight="bold">Carla_Str</text>
<line x1="1149" y1="140" x2="1371" y2="140" stroke="#000000" stroke-width="1"/>
<text x="1162" y="157" font-family="Arial" font-size="15">0 to 0.05</text>
<text x="1162" y="174" font-family="Arial" font-size="15">0.05 to 0.1</text>
<text x="1162" y="191" font-family="Arial" font-size="15">0.1 to 0.15</text>
<text x="1162" y="208" font-family="Arial" font-size="15">0.15 to 0.2</text>
<text x="1162" y="225" font-family="Arial" font-size="15">0.2 to 0.25</text>
<text x="1162" y="242" font-family="Arial" font-size="15">0.25 to 0.3</text>
<text x="1162" y="259" font-family="Arial" font-size="15">0.3 to 0.35</text>
<text x="1162" y="276" font-family="Arial" font-size="15">0.35 to 0.4</text>
<text x="1162" y="293" font-family="Arial" font-size="15">0.4 to 0.45</text>
<text x="1162" y="310" font-family="Arial" font-size="15">0.45 to 0.5</text>
<text x="1162" y="327" font-family="Arial" font-size="15">0.5 to 0.55</text>
<text x="1162" y="344" font-family="Arial" font-size="15">0.55 to 0.6</text>
<text x="1162" y="361" font-family="Arial" font-size="15">0.6 to 0.65</text>
<text x="1162" y="378" font-family="Arial" font-size="15">0.65 to 0.7</text>
<text x="1162" y="395" font-family="Arial" font-size="15">0.7 to 0.75</text>
<text x="1162" y="412" font-family="Arial" font-size="15">0.75 to 0.8</text>
<text x="1162" y="429" font-family="Arial" font-size="15">0.8 to 0.85</text>
<text x="1162" y="446" font-family="Arial" font-size="15">0.85 to 0.9</text>
<text x="1162" y="463" font-family="Arial" font-size="15">0.9 to 0.95</text>
<text x="1162" y="480" font-family="Arial" font-size="15">0.95 to 1</text>
<text x="1259" y="157" font-family="Arial" font-size="15">9.73</text>
<text x="1259" y="174" font-family="Arial" font-size="15">9.25</text>
<text x="1259" y="191" font-family="Arial" font-size="15">8.75</text>
<text x="1259" y="208" font-family="Arial" font-size="15">8.23</text>
<text x="1259" y="225" font-family="Arial" font-size="15">7.74</text>
<text x="1259" y="242" font-family="Arial" font-size="15">7.25</text>
<text x="1259" y="259" font-family="Arial" font-size="15">6.75</text>
<text x="1259" y="276" font-family="Arial" font-size="15">6.26</text>
<text x="1259" y="293" font-family="Arial" font-size="15">5.75</text>
<text x="1259" y="310" font-family="Arial" font-size="15">5.25</text>
<text x="1259" y="327" font-family="Arial" font-size="15">4.76</text>
<text x="1259" y="344" font-family="Arial" font-size="15">4.23</text>
<text x="1259" y="361" font-family="Arial" font-size="15">3.74</text>
<text x="1259" y="378" font-family="Arial" font-size="15">3.25</text>
<text x="1259" y="395" font-family="Arial" font-size="15">2.74</text>
<text x="1259" y="412" font-family="Arial" font-size="15">2.26</text>
<text x="1259" y="429" font-family="Arial" font-size="15">1.75</text>
<text x="1259" y="446" font-family="Arial" font-size="15">1.26</text>
<text x="1259" y="463" font-family="Arial" font-size="15">0.76</text>
<text x="1259" y="480" font-family="Arial" font-size="15">0.26</text>
<rect x="1294" y="140" width="77" height="344" fill="#c6bea8" stroke-width="0"/>
<rect x="1294" y="148" width="62" height="8" fill="#000000" stroke-width="0"/>
<rect x="1294" y="165" width="59" height="8" fill="#000000" stroke-width="0"/>
<rect x="1294" y="182" width="55" height="8" fill="#000000" stroke-width="0"/>
<rect x="1294" y="199" width="52" height="8" fill="#000000" stroke-width="0"/>
<rect x="1294" y="216" width="49" height="8" fill="#000000" stroke-width="0"/>
<rect x="1294" y="233" width="46" height="8" fill="#000000" stroke-width="0"/>
<rect x="1294" y="250" width="43" height="8" fill="#000000" stroke-width="0"/>
<rect x="1294" y="267" width="40" height="8" fill="#000000" stroke-width="0"/>
<rect x="1294" y="284" width="36" height="8" fill="#000000" stroke-width="0"/>
<rect x="1294" y="301" width="33" height="8" fill="#000000" stroke-width="0"/>
<rect x="1294" y="318" width="30" height="8" fill="#000000" stroke-width="0"/>
<rect x="1294" y="335" width="27" height="8" fill="#000000" stroke-width="0"/>
<rect x="1294" y="352" width="24" height="8" fill="#000000" stroke-width="0"/>
<rect x="1294" y="369" width="21" height="8" fill="#000000" stroke-width="0"/>
<rect x="1294" y="386" width="17" height="8" fill="#000000" stroke-width="0"/>
<rect x="1294" y="403" width="14" height="8" fill="#000000" stroke-width="0"/>
<rect x="1294" y="420" width="11" height="8" fill="#000000" stroke-width="0"/>
<rect x="1294" y="437" width="8" height="8" fill="#000000" stroke-width="0"/>
<rect x="1294" y="454" width="5" height="8" fill="#000000" stroke-width="0"/>
<rect x="1294" y="471" width="2" height="8" fill="#000000" stroke-width="0"/>
<rect x="1294" y="140" width="77" height="344" fill-opacity="0" stroke="#000000" stroke-width="1"/>
<line x1="1149" y1="484" x2="1371" y2="484" stroke="#000000" stroke-width="1"/>
<text x="1217" y="502" font-family="Arial" font-size="15">0.334 &#177; 0.24</text>
<rect x="1149" y="116" width="222" height="391" fill-opacity="0" stroke="#000000" stroke-width="1"/>
</g>
<g id="Better">
<rect x="1409" y="137" width="181" height="62" fill="#a8ffa8" stroke-width="0"/>
<text x="1478" y="156" font-family="Arial" font-size="15" font-weight="bold">Better</text>
<line x1="1409" y1="161" x2="1590" y2="161" stroke="#000000" stroke-width="1"/>
<text x="1422" y="178" font-family="Arial" font-size="15">true</text>
<text x="1422" y="195" font-family="Arial" font-size="15">false</text>
<text x="1478" y="178" font-family="Arial" font-size="15"> 100</text>
<text x="1488" y="195" font-family="Arial" font-size="15">   0</text>
<rect x="1513" y="161" width="77" height="38" fill="#86cc86" stroke-width="0"/>
<line x1="1532" y1="162" x2="1532" y2="198" stroke="black" stroke-width="1" stroke-dasharray="3,3"/>
<line x1="1552" y1="162" x2="1552" y2="198" stroke="black" stroke-width="1" stroke-dasharray="3,3"/>
<line x1="1571" y1="162" x2="1571" y2="198" stroke="black" stroke-width="1" stroke-dasharray="3,3"/>
<rect x="1513" y="169" width="77" height="8" fill="#000000" stroke-width="0"/>
<rect x="1513" y="167" width="77" height="12" fill-opacity="0" stroke="#000000" stroke-width="1"/>
<rect x="1513" y="161" width="77" height="38" fill-opacity="0" stroke="#000000" stroke-width="1"/>
<rect x="1409" y="137" width="181" height="62" fill-opacity="0" stroke="#000000" stroke-width="1"/>
</g>
<g id="m2">
<rect x="1384" y="581" width="183" height="62" fill="#f8eed2" stroke-width="0"/>
<text x="1418" y="600" font-family="Arial" font-size="15" font-weight="bold">m2: Who wins?</text>
<line x1="1384" y1="605" x2="1567" y2="605" stroke="#000000" stroke-width="1"/>
<text x="1397" y="622" font-family="Arial" font-size="15">jenny</text>
<text x="1397" y="639" font-family="Arial" font-size="15">alice</text>
<text x="1455" y="622" font-family="Arial" font-size="15">66.6</text>
<text x="1455" y="639" font-family="Arial" font-size="15">33.4</text>
<rect x="1490" y="605" width="77" height="38" fill="#c6bea8" stroke-width="0"/>
<line x1="1509" y1="606" x2="1509" y2="642" stroke="black" stroke-width="1" stroke-dasharray="3,3"/>
<line x1="1529" y1="606" x2="1529" y2="642" stroke="black" stroke-width="1" stroke-dasharray="3,3"/>
<line x1="1548" y1="606" x2="1548" y2="642" stroke="black" stroke-width="1" stroke-dasharray="3,3"/>
<rect x="1490" y="613" width="51" height="8" fill="#000000" stroke-width="0"/>
<rect x="1490" y="630" width="26" height="8" fill="#000000" stroke-width="0"/>
<rect x="1490" y="605" width="77" height="38" fill-opacity="0" stroke="#000000" stroke-width="1"/>
<rect x="1384" y="581" width="183" height="62" fill-opacity="0" stroke="#000000" stroke-width="1"/>
</g>
<g id="m1">
<rect x="1169" y="581" width="182" height="62" fill="#f8eed2" stroke-width="0"/>
<text x="1202" y="600" font-family="Arial" font-size="15" font-weight="bold">m1: Who wins?</text>
<line x1="1169" y1="605" x2="1351" y2="605" stroke="#000000" stroke-width="1"/>
<text x="1182" y="622" font-family="Arial" font-size="15">carla</text>
<text x="1182" y="639" font-family="Arial" font-size="15">alice</text>
<text x="1239" y="622" font-family="Arial" font-size="15">33.4</text>
<text x="1239" y="639" font-family="Arial" font-size="15">66.6</text>
<rect x="1274" y="605" width="77" height="38" fill="#c6bea8" stroke-width="0"/>
<line x1="1293" y1="606" x2="1293" y2="642" stroke="black" stroke-width="1" stroke-dasharray="3,3"/>
<line x1="1313" y1="606" x2="1313" y2="642" stroke="black" stroke-width="1" stroke-dasharray="3,3"/>
<line x1="1332" y1="606" x2="1332" y2="642" stroke="black" stroke-width="1" stroke-dasharray="3,3"/>
<rect x="1274" y="613" width="26" height="8" fill="#000000" stroke-width="0"/>
<rect x="1274" y="630" width="51" height="8" fill="#000000" stroke-width="0"/>
<rect x="1274" y="605" width="77" height="38" fill-opacity="0" stroke="#000000" stroke-width="1"/>
<rect x="1169" y="581" width="182" height="62" fill-opacity="0" stroke="#000000" stroke-width="1"/>
</g>
<g id="m3">
<rect x="1595" y="581" width="182" height="62" fill="#f8eed2" stroke-width="0"/>
<text x="1628" y="600" font-family="Arial" font-size="15" font-weight="bold">m3: Who wins?</text>
<line x1="1595" y1="605" x2="1777" y2="605" stroke="#000000" stroke-width="1"/>
<text x="1608" y="622" font-family="Arial" font-size="15">carla</text>
<text x="1608" y="639" font-family="Arial" font-size="15">alice</text>
<text x="1665" y="622" font-family="Arial" font-size="15">33.4</text>
<text x="1665" y="639" font-family="Arial" font-size="15">66.6</text>
<rect x="1700" y="605" width="77" height="38" fill="#c6bea8" stroke-width="0"/>
<line x1="1719" y1="606" x2="1719" y2="642" stroke="black" stroke-width="1" stroke-dasharray="3,3"/>
<line x1="1739" y1="606" x2="1739" y2="642" stroke="black" stroke-width="1" stroke-dasharray="3,3"/>
<line x1="1758" y1="606" x2="1758" y2="642" stroke="black" stroke-width="1" stroke-dasharray="3,3"/>
<rect x="1700" y="613" width="26" height="8" fill="#000000" stroke-width="0"/>
<rect x="1700" y="630" width="51" height="8" fill="#000000" stroke-width="0"/>
<rect x="1700" y="605" width="77" height="38" fill-opacity="0" stroke="#000000" stroke-width="1"/>
<rect x="1595" y="581" width="182" height="62" fill-opacity="0" stroke="#000000" stroke-width="1"/>
</g>
<g id="Two">
<rect x="1423" y="755" width="225" height="62" fill="#6fb7ff" stroke-width="0"/>
<text x="1439" y="774" font-family="Arial" font-size="15" font-weight="bold">Two: alice wins 2 in a row</text>
<line x1="1423" y1="779" x2="1648" y2="779" stroke="#000000" stroke-width="1"/>
<text x="1436" y="796" font-family="Arial" font-size="15">true</text>
<text x="1436" y="813" font-family="Arial" font-size="15">false</text>
<text x="1536" y="796" font-family="Arial" font-size="15">30.1</text>
<text x="1536" y="813" font-family="Arial" font-size="15">69.9</text>
<rect x="1571" y="779" width="77" height="38" fill="#5992cc" stroke-width="0"/>
<line x1="1590" y1="780" x2="1590" y2="816" stroke="black" stroke-width="1" stroke-dasharray="3,3"/>
<line x1="1610" y1="780" x2="1610" y2="816" stroke="black" stroke-width="1" stroke-dasharray="3,3"/>
<line x1="1629" y1="780" x2="1629" y2="816" stroke="black" stroke-width="1" stroke-dasharray="3,3"/>
<rect x="1571" y="787" width="23" height="8" fill="#000000" stroke-width="0"/>
<rect x="1571" y="804" width="54" height="8" fill="#000000" stroke-width="0"/>
<rect x="1571" y="779" width="77" height="38" fill-opacity="0" stroke="#000000" stroke-width="1"/>
<rect x="1423" y="755" width="225" height="62" fill-opacity="0" stroke="#000000" stroke-width="1"/>
</g>
<g id="Wins">
<rect x="1176" y="732" width="168" height="119" fill="#6fb7ff" stroke-width="0"/>
<text x="1242" y="751" font-family="Arial" font-size="15" font-weight="bold">Wins</text>
<line x1="1176" y1="756" x2="1344" y2="756" stroke="#000000" stroke-width="1"/>
<text x="1189" y="773" font-family="Arial" font-size="15">0</text>
<text x="1189" y="790" font-family="Arial" font-size="15">1</text>
<text x="1189" y="807" font-family="Arial" font-size="15">2</text>
<text x="1189" y="824" font-family="Arial" font-size="15">3</text>
<text x="1232" y="773" font-family="Arial" font-size="15">13.3</text>
<text x="1232" y="790" font-family="Arial" font-size="15">26.7</text>
<text x="1232" y="807" font-family="Arial" font-size="15">40.0</text>
<text x="1232" y="824" font-family="Arial" font-size="15">20.0</text>
<rect x="1267" y="756" width="77" height="72" fill="#5992cc" stroke-width="0"/>
<line x1="1286" y1="757" x2="1286" y2="827" stroke="black" stroke-width="1" stroke-dasharray="3,3"/>
<line x1="1306" y1="757" x2="1306" y2="827" stroke="black" stroke-width="1" stroke-dasharray="3,3"/>
<line x1="1325" y1="757" x2="1325" y2="827" stroke="black" stroke-width="1" stroke-dasharray="3,3"/>
<rect x="1267" y="764" width="10" height="8" fill="#000000" stroke-width="0"/>
<rect x="1267" y="781" width="21" height="8" fill="#000000" stroke-width="0"/>
<rect x="1267" y="798" width="31" height="8" fill="#000000" stroke-width="0"/>
<rect x="1267" y="815" width="15" height="8" fill="#000000" stroke-width="0"/>
<rect x="1267" y="756" width="77" height="72" fill-opacity="0" stroke="#000000" stroke-width="1"/>
<line x1="1176" y1="828" x2="1344" y2="828" stroke="#000000" stroke-width="1"/>
<text x="1222" y="846" font-family="Arial" font-size="15">1.67 &#177; 0.94</text>
<rect x="1176" y="732" width="168" height="119" fill-opacity="0" stroke="#000000" stroke-width="1"/>
</g>
<g id="title1">
<rect x="1298" y="35" width="356" height="62" rx="16" ry="16" fill="#ffb591" stroke-width="0"/>
<rect x="1299" y="36" width="354" height="60" rx="16" ry="16" fill-opacity="0" stroke="#000000" stroke-width="2"/>
<text x="1319" y="59" font-family="Arial" font-size="22.5">title1: THE TENNIS MATCH - </text>
<text x="1319" y="87" font-family="Arial" font-size="22.5">Carla--Jenny--Carla</text>
</g>
<g id="Jenny_Str">
<rect x="1623" y="122" width="222" height="391" fill="#f8eed2" stroke-width="0"/>
<text x="1696" y="141" font-family="Arial" font-size="15" font-weight="bold">Jenny_Str</text>
<line x1="1623" y1="146" x2="1845" y2="146" stroke="#000000" stroke-width="1"/>
<text x="1636" y="163" font-family="Arial" font-size="15">0 to 0.05</text>
<text x="1636" y="180" font-family="Arial" font-size="15">0.05 to 0.1</text>
<text x="1636" y="197" font-family="Arial" font-size="15">0.1 to 0.15</text>
<text x="1636" y="214" font-family="Arial" font-size="15">0.15 to 0.2</text>
<text x="1636" y="231" font-family="Arial" font-size="15">0.2 to 0.25</text>
<text x="1636" y="248" font-family="Arial" font-size="15">0.25 to 0.3</text>
<text x="1636" y="265" font-family="Arial" font-size="15">0.3 to 0.35</text>
<text x="1636" y="282" font-family="Arial" font-size="15">0.35 to 0.4</text>
<text x="1636" y="299" font-family="Arial" font-size="15">0.4 to 0.45</text>
<text x="1636" y="316" font-family="Arial" font-size="15">0.45 to 0.5</text>
<text x="1636" y="333" font-family="Arial" font-size="15">0.5 to 0.55</text>
<text x="1636" y="350" font-family="Arial" font-size="15">0.55 to 0.6</text>
<text x="1636" y="367" font-family="Arial" font-size="15">0.6 to 0.65</text>
<text x="1636" y="384" font-family="Arial" font-size="15">0.65 to 0.7</text>
<text x="1636" y="401" font-family="Arial" font-size="15">0.7 to 0.75</text>
<text x="1636" y="418" font-family="Arial" font-size="15">0.75 to 0.8</text>
<text x="1636" y="435" font-family="Arial" font-size="15">0.8 to 0.85</text>
<text x="1636" y="452" font-family="Arial" font-size="15">0.85 to 0.9</text>
<text x="1636" y="469" font-family="Arial" font-size="15">0.9 to 0.95</text>
<text x="1636" y="486" font-family="Arial" font-size="15">0.95 to 1</text>
<text x="1733" y="163" font-family="Arial" font-size="15">0.26</text>
<text x="1733" y="180" font-family="Arial" font-size="15">0.77</text>
<text x="1733" y="197" font-family="Arial" font-size="15">1.27</text>
<text x="1733" y="214" font-family="Arial" font-size="15">1.75</text>
<text x="1733" y="231" font-family="Arial" font-size="15">2.25</text>
<text x="1733" y="248" font-family="Arial" font-size="15">2.76</text>
<text x="1733" y="265" font-family="Arial" font-size="15">3.26</text>
<text x="1733" y="282" font-family="Arial" font-size="15">3.76</text>
<text x="1733" y="299" font-family="Arial" font-size="15">4.25</text>
<text x="1733" y="316" font-family="Arial" font-size="15">4.75</text>
<text x="1733" y="333" font-family="Arial" font-size="15">5.26</text>
<text x="1733" y="350" font-family="Arial" font-size="15">5.73</text>
<text x="1733" y="367" font-family="Arial" font-size="15">6.24</text>
<text x="1733" y="384" font-family="Arial" font-size="15">6.74</text>
<text x="1733" y="401" font-family="Arial" font-size="15">7.23</text>
<text x="1733" y="418" font-family="Arial" font-size="15">7.75</text>
<text x="1733" y="435" font-family="Arial" font-size="15">8.23</text>
<text x="1733" y="452" font-family="Arial" font-size="15">8.75</text>
<text x="1733" y="469" font-family="Arial" font-size="15">9.25</text>
<text x="1733" y="486" font-family="Arial" font-size="15">9.74</text>
<rect x="1768" y="146" width="77" height="344" fill="#c6bea8" stroke-width="0"/>
<rect x="1768" y="154" width="2" height="8" fill="#000000" stroke-width="0"/>
<rect x="1768" y="171" width="5" height="8" fill="#000000" stroke-width="0"/>
<rect x="1768" y="188" width="8" height="8" fill="#000000" stroke-width="0"/>
<rect x="1768" y="205" width="11" height="8" fill="#000000" stroke-width="0"/>
<rect x="1768" y="222" width="14" height="8" fill="#000000" stroke-width="0"/>
<rect x="1768" y="239" width="17" height="8" fill="#000000" stroke-width="0"/>
<rect x="1768" y="256" width="21" height="8" fill="#000000" stroke-width="0"/>
<rect x="1768" y="273" width="24" height="8" fill="#000000" stroke-width="0"/>
<rect x="1768" y="290" width="27" height="8" fill="#000000" stroke-width="0"/>
<rect x="1768" y="307" width="30" height="8" fill="#000000" stroke-width="0"/>
<rect x="1768" y="324" width="33" height="8" fill="#000000" stroke-width="0"/>
<rect x="1768" y="341" width="36" height="8" fill="#000000" stroke-width="0"/>
<rect x="1768" y="358" width="39" height="8" fill="#000000" stroke-width="0"/>
<rect x="1768" y="375" width="43" height="8" fill="#000000" stroke-width="0"/>
<rect x="1768" y="392" width="46" height="8" fill="#000000" stroke-width="0"/>
<rect x="1768" y="409" width="49" height="8" fill="#000000" stroke-width="0"/>
<rect x="1768" y="426" width="52" height="8" fill="#000000" stroke-width="0"/>
<rect x="1768" y="443" width="55" height="8" fill="#000000" stroke-width="0"/>
<rect x="1768" y="460" width="58" height="8" fill="#000000" stroke-width="0"/>
<rect x="1768" y="477" width="62" height="8" fill="#000000" stroke-width="0"/>
<rect x="1768" y="146" width="77" height="344" fill-opacity="0" stroke="#000000" stroke-width="1"/>
<line x1="1623" y1="490" x2="1845" y2="490" stroke="#000000" stroke-width="1"/>
<text x="1691" y="508" font-family="Arial" font-size="15">0.666 &#177; 0.24</text>
<rect x="1623" y="122" width="222" height="391" fill-opacity="0" stroke="#000000" stroke-width="1"/>
</g>
<g id="title">
<rect x="315" y="29" width="343" height="62" rx="16" ry="16" fill="#ffb591" stroke-width="0"/>
<rect x="316" y="30" width="341" height="60" rx="16" ry="16" fill-opacity="0" stroke="#000000" stroke-width="2"/>
<text x="336" y="53" font-family="Arial" font-size="22.5">title: THE TENNIS MATCH - </text>
<text x="336" y="81" font-family="Arial" font-size="22.5">Jenny--Carla--Jenny</text>
</g>
<g id="Jenny_str">
<rect x="129" y="116" width="222" height="391" fill="#f8eed2" stroke-width="0"/>
<text x="203" y="135" font-family="Arial" font-size="15" font-weight="bold">Jenny_str</text>
<line x1="129" y1="140" x2="351" y2="140" stroke="#000000" stroke-width="1"/>
<text x="142" y="157" font-family="Arial" font-size="15">0 to 0.05</text>
<text x="142" y="174" font-family="Arial" font-size="15">0.05 to 0.1</text>
<text x="142" y="191" font-family="Arial" font-size="15">0.1 to 0.15</text>
<text x="142" y="208" font-family="Arial" font-size="15">0.15 to 0.2</text>
<text x="142" y="225" font-family="Arial" font-size="15">0.2 to 0.25</text>
<text x="142" y="242" font-family="Arial" font-size="15">0.25 to 0.3</text>
<text x="142" y="259" font-family="Arial" font-size="15">0.3 to 0.35</text>
<text x="142" y="276" font-family="Arial" font-size="15">0.35 to 0.4</text>
<text x="142" y="293" font-family="Arial" font-size="15">0.4 to 0.45</text>
<text x="142" y="310" font-family="Arial" font-size="15">0.45 to 0.5</text>
<text x="142" y="327" font-family="Arial" font-size="15">0.5 to 0.55</text>
<text x="142" y="344" font-family="Arial" font-size="15">0.55 to 0.6</text>
<text x="142" y="361" font-family="Arial" font-size="15">0.6 to 0.65</text>
<text x="142" y="378" font-family="Arial" font-size="15">0.65 to 0.7</text>
<text x="142" y="395" font-family="Arial" font-size="15">0.7 to 0.75</text>
<text x="142" y="412" font-family="Arial" font-size="15">0.75 to 0.8</text>
<text x="142" y="429" font-family="Arial" font-size="15">0.8 to 0.85</text>
<text x="142" y="446" font-family="Arial" font-size="15">0.85 to 0.9</text>
<text x="142" y="463" font-family="Arial" font-size="15">0.9 to 0.95</text>
<text x="142" y="480" font-family="Arial" font-size="15">0.95 to 1</text>
<text x="239" y="157" font-family="Arial" font-size="15">0.25</text>
<text x="239" y="174" font-family="Arial" font-size="15">0.75</text>
<text x="239" y="191" font-family="Arial" font-size="15">1.25</text>
<text x="239" y="208" font-family="Arial" font-size="15">1.75</text>
<text x="239" y="225" font-family="Arial" font-size="15">2.25</text>
<text x="239" y="242" font-family="Arial" font-size="15">2.75</text>
<text x="239" y="259" font-family="Arial" font-size="15">3.25</text>
<text x="239" y="276" font-family="Arial" font-size="15">3.75</text>
<text x="239" y="293" font-family="Arial" font-size="15">4.25</text>
<text x="239" y="310" font-family="Arial" font-size="15">4.75</text>
<text x="239" y="327" font-family="Arial" font-size="15">5.25</text>
<text x="239" y="344" font-family="Arial" font-size="15">5.75</text>
<text x="239" y="361" font-family="Arial" font-size="15">6.25</text>
<text x="239" y="378" font-family="Arial" font-size="15">6.75</text>
<text x="239" y="395" font-family="Arial" font-size="15">7.25</text>
<text x="239" y="412" font-family="Arial" font-size="15">7.74</text>
<text x="239" y="429" font-family="Arial" font-size="15">8.25</text>
<text x="239" y="446" font-family="Arial" font-size="15">8.75</text>
<text x="239" y="463" font-family="Arial" font-size="15">9.25</text>
<text x="239" y="480" font-family="Arial" font-size="15">9.75</text>
<rect x="274" y="140" width="77" height="344" fill="#c6bea8" stroke-width="0"/>
<rect x="274" y="148" width="2" height="8" fill="#000000" stroke-width="0"/>
<rect x="274" y="165" width="5" height="8" fill="#000000" stroke-width="0"/>
<rect x="274" y="182" width="8" height="8" fill="#000000" stroke-width="0"/>
<rect x="274" y="199" width="11" height="8" fill="#000000" stroke-width="0"/>
<rect x="274" y="216" width="14" height="8" fill="#000000" stroke-width="0"/>
<rect x="274" y="233" width="17" height="8" fill="#000000" stroke-width="0"/>
<rect x="274" y="250" width="21" height="8" fill="#000000" stroke-width="0"/>
<rect x="274" y="267" width="24" height="8" fill="#000000" stroke-width="0"/>
<rect x="274" y="284" width="27" height="8" fill="#000000" stroke-width="0"/>
<rect x="274" y="301" width="30" height="8" fill="#000000" stroke-width="0"/>
<rect x="274" y="318" width="33" height="8" fill="#000000" stroke-width="0"/>
<rect x="274" y="335" width="36" height="8" fill="#000000" stroke-width="0"/>
<rect x="274" y="352" width="39" height="8" fill="#000000" stroke-width="0"/>
<rect x="274" y="369" width="43" height="8" fill="#000000" stroke-width="0"/>
<rect x="274" y="386" width="46" height="8" fill="#000000" stroke-width="0"/>
<rect x="274" y="403" width="49" height="8" fill="#000000" stroke-width="0"/>
<rect x="274" y="420" width="52" height="8" fill="#000000" stroke-width="0"/>
<rect x="274" y="437" width="55" height="8" fill="#000000" stroke-width="0"/>
<rect x="274" y="454" width="58" height="8" fill="#000000" stroke-width="0"/>
<rect x="274" y="471" width="62" height="8" fill="#000000" stroke-width="0"/>
<rect x="274" y="140" width="77" height="344" fill-opacity="0" stroke="#000000" stroke-width="1"/>
<line x1="129" y1="484" x2="351" y2="484" stroke="#000000" stroke-width="1"/>
<text x="197" y="502" font-family="Arial" font-size="15">0.666 &#177; 0.24</text>
<rect x="129" y="116" width="222" height="391" fill-opacity="0" stroke="#000000" stroke-width="1"/>
</g>
<g id="better">
<rect x="389" y="137" width="181" height="62" fill="#a8ffa8" stroke-width="0"/>
<text x="459" y="156" font-family="Arial" font-size="15" font-weight="bold">better</text>
<line x1="389" y1="161" x2="570" y2="161" stroke="#000000" stroke-width="1"/>
<text x="402" y="178" font-family="Arial" font-size="15">true</text>
<text x="402" y="195" font-family="Arial" font-size="15">false</text>
<text x="458" y="178" font-family="Arial" font-size="15"> 100</text>
<text x="468" y="195" font-family="Arial" font-size="15">   0</text>
<rect x="493" y="161" width="77" height="38" fill="#86cc86" stroke-width="0"/>
<line x1="512" y1="162" x2="512" y2="198" stroke="black" stroke-width="1" stroke-dasharray="3,3"/>
<line x1="532" y1="162" x2="532" y2="198" stroke="black" stroke-width="1" stroke-dasharray="3,3"/>
<line x1="551" y1="162" x2="551" y2="198" stroke="black" stroke-width="1" stroke-dasharray="3,3"/>
<rect x="493" y="169" width="77" height="8" fill="#000000" stroke-width="0"/>
<rect x="493" y="167" width="77" height="12" fill-opacity="0" stroke="#000000" stroke-width="1"/>
<rect x="493" y="161" width="77" height="38" fill-opacity="0" stroke="#000000" stroke-width="1"/>
<rect x="389" y="137" width="181" height="62" fill-opacity="0" stroke="#000000" stroke-width="1"/>
</g>
<g id="M2">
<rect x="365" y="581" width="182" height="62" fill="#f8eed2" stroke-width="0"/>
<text x="399" y="600" font-family="Arial" font-size="15" font-weight="bold">M2: Who wins?</text>
<line x1="365" y1="605" x2="547" y2="605" stroke="#000000" stroke-width="1"/>
<text x="378" y="622" font-family="Arial" font-size="15">carla</text>
<text x="378" y="639" font-family="Arial" font-size="15">alice</text>
<text x="435" y="622" font-family="Arial" font-size="15">33.4</text>
<text x="435" y="639" font-family="Arial" font-size="15">66.6</text>
<rect x="470" y="605" width="77" height="38" fill="#c6bea8" stroke-width="0"/>
<line x1="489" y1="606" x2="489" y2="642" stroke="black" stroke-width="1" stroke-dasharray="3,3"/>
<line x1="509" y1="606" x2="509" y2="642" stroke="black" stroke-width="1" stroke-dasharray="3,3"/>
<line x1="528" y1="606" x2="528" y2="642" stroke="black" stroke-width="1" stroke-dasharray="3,3"/>
<rect x="470" y="613" width="26" height="8" fill="#000000" stroke-width="0"/>
<rect x="470" y="630" width="51" height="8" fill="#000000" stroke-width="0"/>
<rect x="470" y="605" width="77" height="38" fill-opacity="0" stroke="#000000" stroke-width="1"/>
<rect x="365" y="581" width="182" height="62" fill-opacity="0" stroke="#000000" stroke-width="1"/>
</g>
<g id="M3">
<rect x="574" y="587" width="183" height="62" fill="#f8eed2" stroke-width="0"/>
<text x="608" y="606" font-family="Arial" font-size="15" font-weight="bold">M3: Who wins?</text>
<line x1="574" y1="611" x2="757" y2="611" stroke="#000000" stroke-width="1"/>
<text x="587" y="628" font-family="Arial" font-size="15">jenny</text>
<text x="587" y="645" font-family="Arial" font-size="15">alice</text>
<text x="645" y="628" font-family="Arial" font-size="15">66.6</text>
<text x="645" y="645" font-family="Arial" font-size="15">33.4</text>
<rect x="680" y="611" width="77" height="38" fill="#c6bea8" stroke-width="0"/>
<line x1="699" y1="612" x2="699" y2="648" stroke="black" stroke-width="1" stroke-dasharray="3,3"/>
<line x1="719" y1="612" x2="719" y2="648" stroke="black" stroke-width="1" stroke-dasharray="3,3"/>
<line x1="738" y1="612" x2="738" y2="648" stroke="black" stroke-width="1" stroke-dasharray="3,3"/>
<rect x="680" y="619" width="51" height="8" fill="#000000" stroke-width="0"/>
<rect x="680" y="636" width="26" height="8" fill="#000000" stroke-width="0"/>
<rect x="680" y="611" width="77" height="38" fill-opacity="0" stroke="#000000" stroke-width="1"/>
<rect x="574" y="587" width="183" height="62" fill-opacity="0" stroke="#000000" stroke-width="1"/>
</g>
<g id="two">
<rect x="406" y="761" width="220" height="62" fill="#6fb7ff" stroke-width="0"/>
<text x="422" y="780" font-family="Arial" font-size="15" font-weight="bold">two: alice wins 2 in a row</text>
<line x1="406" y1="785" x2="626" y2="785" stroke="#000000" stroke-width="1"/>
<text x="419" y="802" font-family="Arial" font-size="15">true</text>
<text x="419" y="819" font-family="Arial" font-size="15">false</text>
<text x="514" y="802" font-family="Arial" font-size="15">36.7</text>
<text x="514" y="819" font-family="Arial" font-size="15">63.3</text>
<rect x="549" y="785" width="77" height="38" fill="#5992cc" stroke-width="0"/>
<line x1="568" y1="786" x2="568" y2="822" stroke="black" stroke-width="1" stroke-dasharray="3,3"/>
<line x1="588" y1="786" x2="588" y2="822" stroke="black" stroke-width="1" stroke-dasharray="3,3"/>
<line x1="607" y1="786" x2="607" y2="822" stroke="black" stroke-width="1" stroke-dasharray="3,3"/>
<rect x="549" y="793" width="28" height="8" fill="#000000" stroke-width="0"/>
<rect x="549" y="810" width="49" height="8" fill="#000000" stroke-width="0"/>
<rect x="549" y="785" width="77" height="38" fill-opacity="0" stroke="#000000" stroke-width="1"/>
<rect x="406" y="761" width="220" height="62" fill-opacity="0" stroke="#000000" stroke-width="1"/>
</g>
<g id="wins">
<rect x="156" y="738" width="168" height="119" fill="#6fb7ff" stroke-width="0"/>
<text x="223" y="757" font-family="Arial" font-size="15" font-weight="bold">wins</text>
<line x1="156" y1="762" x2="324" y2="762" stroke="#000000" stroke-width="1"/>
<text x="169" y="779" font-family="Arial" font-size="15">0</text>
<text x="169" y="796" font-family="Arial" font-size="15">1</text>
<text x="169" y="813" font-family="Arial" font-size="15">2</text>
<text x="169" y="830" font-family="Arial" font-size="15">3</text>
<text x="212" y="779" font-family="Arial" font-size="15">20.0</text>
<text x="212" y="796" font-family="Arial" font-size="15">40.0</text>
<text x="212" y="813" font-family="Arial" font-size="15">26.7</text>
<text x="212" y="830" font-family="Arial" font-size="15">13.3</text>
<rect x="247" y="762" width="77" height="72" fill="#5992cc" stroke-width="0"/>
<line x1="266" y1="763" x2="266" y2="833" stroke="black" stroke-width="1" stroke-dasharray="3,3"/>
<line x1="286" y1="763" x2="286" y2="833" stroke="black" stroke-width="1" stroke-dasharray="3,3"/>
<line x1="305" y1="763" x2="305" y2="833" stroke="black" stroke-width="1" stroke-dasharray="3,3"/>
<rect x="247" y="770" width="15" height="8" fill="#000000" stroke-width="0"/>
<rect x="247" y="787" width="31" height="8" fill="#000000" stroke-width="0"/>
<rect x="247" y="804" width="21" height="8" fill="#000000" stroke-width="0"/>
<rect x="247" y="821" width="10" height="8" fill="#000000" stroke-width="0"/>
<rect x="247" y="762" width="77" height="72" fill-opacity="0" stroke="#000000" stroke-width="1"/>
<line x1="156" y1="834" x2="324" y2="834" stroke="#000000" stroke-width="1"/>
<text x="202" y="852" font-family="Arial" font-size="15">1.33 &#177; 0.94</text>
<rect x="156" y="738" width="168" height="119" fill-opacity="0" stroke="#000000" stroke-width="1"/>
</g>
<g id="M1">
<rect x="148" y="581" width="183" height="62" fill="#f8eed2" stroke-width="0"/>
<text x="182" y="600" font-family="Arial" font-size="15" font-weight="bold">M1: Who wins?</text>
<line x1="148" y1="605" x2="331" y2="605" stroke="#000000" stroke-width="1"/>
<text x="161" y="622" font-family="Arial" font-size="15">jenny</text>
<text x="161" y="639" font-family="Arial" font-size="15">alice</text>
<text x="219" y="622" font-family="Arial" font-size="15">66.6</text>
<text x="219" y="639" font-family="Arial" font-size="15">33.4</text>
<rect x="254" y="605" width="77" height="38" fill="#c6bea8" stroke-width="0"/>
<line x1="273" y1="606" x2="273" y2="642" stroke="black" stroke-width="1" stroke-dasharray="3,3"/>
<line x1="293" y1="606" x2="293" y2="642" stroke="black" stroke-width="1" stroke-dasharray="3,3"/>
<line x1="312" y1="606" x2="312" y2="642" stroke="black" stroke-width="1" stroke-dasharray="3,3"/>
<rect x="254" y="613" width="51" height="8" fill="#000000" stroke-width="0"/>
<rect x="254" y="630" width="26" height="8" fill="#000000" stroke-width="0"/>
<rect x="254" y="605" width="77" height="38" fill-opacity="0" stroke="#000000" stroke-width="1"/>
<rect x="148" y="581" width="183" height="62" fill-opacity="0" stroke="#000000" stroke-width="1"/>
</g>
<g id="Carla_str">
<rect x="603" y="122" width="222" height="391" fill="#f8eed2" stroke-width="0"/>
<text x="681" y="141" font-family="Arial" font-size="15" font-weight="bold">Carla_str</text>
<line x1="603" y1="146" x2="825" y2="146" stroke="#000000" stroke-width="1"/>
<text x="616" y="163" font-family="Arial" font-size="15">0 to 0.05</text>
<text x="616" y="180" font-family="Arial" font-size="15">0.05 to 0.1</text>
<text x="616" y="197" font-family="Arial" font-size="15">0.1 to 0.15</text>
<text x="616" y="214" font-family="Arial" font-size="15">0.15 to 0.2</text>
<text x="616" y="231" font-family="Arial" font-size="15">0.2 to 0.25</text>
<text x="616" y="248" font-family="Arial" font-size="15">0.25 to 0.3</text>
<text x="616" y="265" font-family="Arial" font-size="15">0.3 to 0.35</text>
<text x="616" y="282" font-family="Arial" font-size="15">0.35 to 0.4</text>
<text x="616" y="299" font-family="Arial" font-size="15">0.4 to 0.45</text>
<text x="616" y="316" font-family="Arial" font-size="15">0.45 to 0.5</text>
<text x="616" y="333" font-family="Arial" font-size="15">0.5 to 0.55</text>
<text x="616" y="350" font-family="Arial" font-size="15">0.55 to 0.6</text>
<text x="616" y="367" font-family="Arial" font-size="15">0.6 to 0.65</text>
<text x="616" y="384" font-family="Arial" font-size="15">0.65 to 0.7</text>
<text x="616" y="401" font-family="Arial" font-size="15">0.7 to 0.75</text>
<text x="616" y="418" font-family="Arial" font-size="15">0.75 to 0.8</text>
<text x="616" y="435" font-family="Arial" font-size="15">0.8 to 0.85</text>
<text x="616" y="452" font-family="Arial" font-size="15">0.85 to 0.9</text>
<text x="616" y="469" font-family="Arial" font-size="15">0.9 to 0.95</text>
<text x="616" y="486" font-family="Arial" font-size="15">0.95 to 1</text>
<text x="713" y="163" font-family="Arial" font-size="15">9.75</text>
<text x="713" y="180" font-family="Arial" font-size="15">9.25</text>
<text x="713" y="197" font-family="Arial" font-size="15">8.75</text>
<text x="713" y="214" font-family="Arial" font-size="15">8.25</text>
<text x="713" y="231" font-family="Arial" font-size="15">7.75</text>
<text x="713" y="248" font-family="Arial" font-size="15">7.25</text>
<text x="713" y="265" font-family="Arial" font-size="15">6.75</text>
<text x="713" y="282" font-family="Arial" font-size="15">6.25</text>
<text x="713" y="299" font-family="Arial" font-size="15">5.75</text>
<text x="713" y="316" font-family="Arial" font-size="15">5.25</text>
<text x="713" y="333" font-family="Arial" font-size="15">4.75</text>
<text x="713" y="350" font-family="Arial" font-size="15">4.25</text>
<text x="713" y="367" font-family="Arial" font-size="15">3.75</text>
<text x="713" y="384" font-family="Arial" font-size="15">3.25</text>
<text x="713" y="401" font-family="Arial" font-size="15">2.76</text>
<text x="713" y="418" font-family="Arial" font-size="15">2.25</text>
<text x="713" y="435" font-family="Arial" font-size="15">1.75</text>
<text x="713" y="452" font-family="Arial" font-size="15">1.25</text>
<text x="713" y="469" font-family="Arial" font-size="15">0.75</text>
<text x="713" y="486" font-family="Arial" font-size="15">0.25</text>
<rect x="748" y="146" width="77" height="344" fill="#c6bea8" stroke-width="0"/>
<rect x="748" y="154" width="62" height="8" fill="#000000" stroke-width="0"/>
<rect x="748" y="171" width="58" height="8" fill="#000000" stroke-width="0"/>
<rect x="748" y="188" width="55" height="8" fill="#000000" stroke-width="0"/>
<rect x="748" y="205" width="52" height="8" fill="#000000" stroke-width="0"/>
<rect x="748" y="222" width="49" height="8" fill="#000000" stroke-width="0"/>
<rect x="748" y="239" width="46" height="8" fill="#000000" stroke-width="0"/>
<rect x="748" y="256" width="43" height="8" fill="#000000" stroke-width="0"/>
<rect x="748" y="273" width="39" height="8" fill="#000000" stroke-width="0"/>
<rect x="748" y="290" width="36" height="8" fill="#000000" stroke-width="0"/>
<rect x="748" y="307" width="33" height="8" fill="#000000" stroke-width="0"/>
<rect x="748" y="324" width="30" height="8" fill="#000000" stroke-width="0"/>
<rect x="748" y="341" width="27" height="8" fill="#000000" stroke-width="0"/>
<rect x="748" y="358" width="24" height="8" fill="#000000" stroke-width="0"/>
<rect x="748" y="375" width="21" height="8" fill="#000000" stroke-width="0"/>
<rect x="748" y="392" width="17" height="8" fill="#000000" stroke-width="0"/>
<rect x="748" y="409" width="14" height="8" fill="#000000" stroke-width="0"/>
<rect x="748" y="426" width="11" height="8" fill="#000000" stroke-width="0"/>
<rect x="748" y="443" width="8" height="8" fill="#000000" stroke-width="0"/>
<rect x="748" y="460" width="5" height="8" fill="#000000" stroke-width="0"/>
<rect x="748" y="477" width="2" height="8" fill="#000000" stroke-width="0"/>
<rect x="748" y="146" width="77" height="344" fill-opacity="0" stroke="#000000" stroke-width="1"/>
<line x1="603" y1="490" x2="825" y2="490" stroke="#000000" stroke-width="1"/>
<text x="671" y="508" font-family="Arial" font-size="15">0.334 &#177; 0.24</text>
<rect x="603" y="122" width="222" height="391" fill-opacity="0" stroke="#000000" stroke-width="1"/>
</g>
<g id="rules3">
<rect x="996" y="10" width="265" height="29" rx="15" ry="15" fill="#9fe0ff" stroke-width="0"/>
<rect x="997" y="11" width="263" height="27" rx="15" ry="15" fill-opacity="0" stroke="#000000" stroke-width="2"/>
<text x="1013" y="31" font-family="Arial" font-size="17.5">rules3: Powered with Netica</text>
</g>
<g id="equations">
<rect x="1039" y="46" width="130" height="29" rx="15" ry="15" fill="#dbdeb8" stroke-width="0"/>
<rect x="1040" y="47" width="128" height="27" rx="15" ry="15" fill-opacity="0" stroke="#000000" stroke-width="2"/>
<text x="1056" y="67" font-family="Arial" font-size="17.5">equations: -</text>
</g>

</svg>

