<?xml version="1.0" encoding="UTF-8"?>
<svg width="1921" height="904" viewBox="0 0 1921 904"
  xml:space="preserve"
  version="1.1"
  xmlns="http://www.w3.org/2000/svg">

<title>Graphic of net "C:\Users\pasca\Documents\NETICA EXAMPLES\THE TENNIS MATCH PUZZLE2\THE TENNIS MATCH PUZZLE 3" generated by BerckerP using Netica 7.01 on Mar 03, 2026 at 11:54:01 UTC.</title>

<polygon points="1472,570 1480,570 1476,581" fill="#000000" stroke="none"/>
<polyline points="1722,312 1476,540 1476,571" stroke="#000000" stroke-width="1" fill="none"/>
<polygon points="1256,570 1264,570 1260,581" fill="#000000" stroke="none"/>
<polyline points="1260,312 1260,571" stroke="#000000" stroke-width="1" fill="none"/>
<polygon points="1682,570 1690,570 1686,581" fill="#000000" stroke="none"/>
<polyline points="1260,312 1608,552 1686,552 1686,571" stroke="#000000" stroke-width="1" fill="none"/>
<polygon points="321,380 321,388 310,384" fill="#000000" stroke="none"/>
<polyline points="672,384 321,384" stroke="#000000" stroke-width="1" fill="none"/>
<polygon points="410,642 418,642 414,653" fill="#000000" stroke="none"/>
<polyline points="672,384 414,612 414,643" stroke="#000000" stroke-width="1" fill="none"/>
<polygon points="620,648 628,648 624,659" fill="#000000" stroke="none"/>
<polyline points="198,384 546,624 624,624 624,649" stroke="#000000" stroke-width="1" fill="none"/>
<polygon points="194,642 202,642 198,653" fill="#000000" stroke="none"/>
<polyline points="198,384 198,643" stroke="#000000" stroke-width="1" fill="none"/>
<polygon points="405.417,801.32 409.202,794.272 417,803" fill="#000000" stroke="none"/>
<polyline points="198,684 408,798" stroke="#000000" stroke-width="1" fill="none"/>
<polygon points="454.098,794.365 461.49,791.306 462,803" fill="#000000" stroke="none"/>
<polyline points="414,684 458,793" stroke="#000000" stroke-width="1" fill="none"/>
<polygon points="511.265,792.546 516.75,798.37 506,803" fill="#000000" stroke="none"/>
<polyline points="624,690 514,796" stroke="#000000" stroke-width="1" fill="none"/>
<polygon points="194,769 202,769 198,780" fill="#000000" stroke="none"/>
<polyline points="198,684 198,770" stroke="#000000" stroke-width="1" fill="none"/>
<polygon points="211.787,768.358 219.548,770.299 213,780" fill="#000000" stroke="none"/>
<polyline points="414,684 222,744 216,770" stroke="#000000" stroke-width="1" fill="none"/>
<polygon points="229.342,768.372 236.497,771.95 228,780" fill="#000000" stroke="none"/>
<polyline points="624,690 240,756 233,771" stroke="#000000" stroke-width="1" fill="none"/>
<polygon points="1471.48,740.921 1475.51,734.008 1483,743" fill="#000000" stroke="none"/>
<polyline points="1260,612 1474,738" stroke="#000000" stroke-width="1" fill="none"/>
<polygon points="1517.32,734.164 1524.79,731.297 1525,743" fill="#000000" stroke="none"/>
<polyline points="1476,612 1521,733" stroke="#000000" stroke-width="1" fill="none"/>
<polygon points="1569.62,732.244 1575.45,737.721 1565,743" fill="#000000" stroke="none"/>
<polyline points="1686,612 1572,735" stroke="#000000" stroke-width="1" fill="none"/>
<polygon points="1256,709 1264,709 1260,720" fill="#000000" stroke="none"/>
<polyline points="1260,612 1260,710" stroke="#000000" stroke-width="1" fill="none"/>
<polygon points="1274.97,708.341 1282.7,710.402 1276,720" fill="#000000" stroke="none"/>
<polyline points="1476,612 1284,690 1279,710" stroke="#000000" stroke-width="1" fill="none"/>
<polygon points="1300.77,708.629 1307.43,713.066 1298,720" fill="#000000" stroke="none"/>
<polyline points="1686,612 1314,696 1304,711" stroke="#000000" stroke-width="1" fill="none"/>
<polygon points="1600,316 1600,308 1611,312" fill="#000000" stroke="none"/>
<polyline points="1260,312 1601,312" stroke="#000000" stroke-width="1" fill="none"/>
<g id="Carla_Str">
<rect x="1116" y="116" width="288" height="391" fill="#f8eed2" stroke-width="0"/>
<text x="1133" y="135" font-family="Arial" font-size="15" font-weight="bold">Carla_Str: BetaDist (Carla2, 11, 9) </text>
<line x1="1116" y1="140" x2="1404" y2="140" stroke="#000000" stroke-width="1"/>
<text x="1129" y="157" font-family="Arial" font-size="15">0 to 0.05</text>
<text x="1129" y="174" font-family="Arial" font-size="15">0.05 to 0.1</text>
<text x="1129" y="191" font-family="Arial" font-size="15">0.1 to 0.15</text>
<text x="1129" y="208" font-family="Arial" font-size="15">0.15 to 0.2</text>
<text x="1129" y="225" font-family="Arial" font-size="15">0.2 to 0.25</text>
<text x="1129" y="242" font-family="Arial" font-size="15">0.25 to 0.3</text>
<text x="1129" y="259" font-family="Arial" font-size="15">0.3 to 0.35</text>
<text x="1129" y="276" font-family="Arial" font-size="15">0.35 to 0.4</text>
<text x="1129" y="293" font-family="Arial" font-size="15">0.4 to 0.45</text>
<text x="1129" y="310" font-family="Arial" font-size="15">0.45 to 0.5</text>
<text x="1129" y="327" font-family="Arial" font-size="15">0.5 to 0.55</text>
<text x="1129" y="344" font-family="Arial" font-size="15">0.55 to 0.6</text>
<text x="1129" y="361" font-family="Arial" font-size="15">0.6 to 0.65</text>
<text x="1129" y="378" font-family="Arial" font-size="15">0.65 to 0.7</text>
<text x="1129" y="395" font-family="Arial" font-size="15">0.7 to 0.75</text>
<text x="1129" y="412" font-family="Arial" font-size="15">0.75 to 0.8</text>
<text x="1129" y="429" font-family="Arial" font-size="15">0.8 to 0.85</text>
<text x="1129" y="446" font-family="Arial" font-size="15">0.85 to 0.9</text>
<text x="1129" y="463" font-family="Arial" font-size="15">0.9 to 0.95</text>
<text x="1129" y="480" font-family="Arial" font-size="15">0.95 to 1</text>
<text x="1297" y="157" font-family="Arial" font-size="15"> 0 +</text>
<text x="1297" y="174" font-family="Arial" font-size="15"> 0 +</text>
<text x="1292" y="191" font-family="Arial" font-size="15">.002</text>
<text x="1292" y="208" font-family="Arial" font-size="15">.029</text>
<text x="1292" y="225" font-family="Arial" font-size="15">0.20</text>
<text x="1292" y="242" font-family="Arial" font-size="15">0.83</text>
<text x="1292" y="259" font-family="Arial" font-size="15">2.42</text>
<text x="1292" y="276" font-family="Arial" font-size="15">5.38</text>
<text x="1292" y="293" font-family="Arial" font-size="15">9.56</text>
<text x="1292" y="310" font-family="Arial" font-size="15">14.0</text>
<text x="1292" y="327" font-family="Arial" font-size="15">17.0</text>
<text x="1292" y="344" font-family="Arial" font-size="15">17.4</text>
<text x="1292" y="361" font-family="Arial" font-size="15">14.7</text>
<text x="1292" y="378" font-family="Arial" font-size="15">10.2</text>
<text x="1292" y="395" font-family="Arial" font-size="15">5.52</text>
<text x="1292" y="412" font-family="Arial" font-size="15">2.21</text>
<text x="1292" y="429" font-family="Arial" font-size="15">0.58</text>
<text x="1292" y="446" font-family="Arial" font-size="15">.081</text>
<text x="1292" y="463" font-family="Arial" font-size="15">.004</text>
<text x="1297" y="480" font-family="Arial" font-size="15"> 0 +</text>
<rect x="1327" y="140" width="77" height="344" fill="#c6bea8" stroke-width="0"/>
<rect x="1327" y="216" width="1" height="8" fill="#000000" stroke-width="0"/>
<rect x="1327" y="233" width="3" height="8" fill="#000000" stroke-width="0"/>
<rect x="1327" y="250" width="9" height="8" fill="#000000" stroke-width="0"/>
<rect x="1327" y="267" width="19" height="8" fill="#000000" stroke-width="0"/>
<rect x="1327" y="284" width="34" height="8" fill="#000000" stroke-width="0"/>
<rect x="1327" y="301" width="50" height="8" fill="#000000" stroke-width="0"/>
<rect x="1327" y="318" width="60" height="8" fill="#000000" stroke-width="0"/>
<rect x="1327" y="335" width="62" height="8" fill="#000000" stroke-width="0"/>
<rect x="1327" y="352" width="52" height="8" fill="#000000" stroke-width="0"/>
<rect x="1327" y="369" width="36" height="8" fill="#000000" stroke-width="0"/>
<rect x="1327" y="386" width="20" height="8" fill="#000000" stroke-width="0"/>
<rect x="1327" y="403" width="8" height="8" fill="#000000" stroke-width="0"/>
<rect x="1327" y="420" width="2" height="8" fill="#000000" stroke-width="0"/>
<rect x="1327" y="140" width="77" height="344" fill-opacity="0" stroke="#000000" stroke-width="1"/>
<line x1="1116" y1="484" x2="1404" y2="484" stroke="#000000" stroke-width="1"/>
<text x="1222" y="502" font-family="Arial" font-size="15">0.55 &#177; 0.11</text>
<rect x="1116" y="116" width="288" height="391" fill-opacity="0" stroke="#000000" stroke-width="1"/>
</g>
<g id="m2">
<rect x="1384" y="581" width="183" height="62" fill="#f8eed2" stroke-width="0"/>
<text x="1418" y="600" font-family="Arial" font-size="15" font-weight="bold">m2: Who wins?</text>
<line x1="1384" y1="605" x2="1567" y2="605" stroke="#000000" stroke-width="1"/>
<text x="1397" y="622" font-family="Arial" font-size="15">jenny</text>
<text x="1397" y="639" font-family="Arial" font-size="15">alice</text>
<text x="1455" y="622" font-family="Arial" font-size="15">74.9</text>
<text x="1455" y="639" font-family="Arial" font-size="15">25.1</text>
<rect x="1490" y="605" width="77" height="38" fill="#c6bea8" stroke-width="0"/>
<line x1="1509" y1="606" x2="1509" y2="642" stroke="black" stroke-width="1" stroke-dasharray="3,3"/>
<line x1="1529" y1="606" x2="1529" y2="642" stroke="black" stroke-width="1" stroke-dasharray="3,3"/>
<line x1="1548" y1="606" x2="1548" y2="642" stroke="black" stroke-width="1" stroke-dasharray="3,3"/>
<rect x="1490" y="613" width="58" height="8" fill="#000000" stroke-width="0"/>
<rect x="1490" y="630" width="19" height="8" fill="#000000" stroke-width="0"/>
<rect x="1490" y="605" width="77" height="38" fill-opacity="0" stroke="#000000" stroke-width="1"/>
<rect x="1384" y="581" width="183" height="62" fill-opacity="0" stroke="#000000" stroke-width="1"/>
</g>
<g id="m1">
<rect x="1169" y="581" width="182" height="62" fill="#f8eed2" stroke-width="0"/>
<text x="1202" y="600" font-family="Arial" font-size="15" font-weight="bold">m1: Who wins?</text>
<line x1="1169" y1="605" x2="1351" y2="605" stroke="#000000" stroke-width="1"/>
<text x="1182" y="622" font-family="Arial" font-size="15">carla</text>
<text x="1182" y="639" font-family="Arial" font-size="15">alice</text>
<text x="1239" y="622" font-family="Arial" font-size="15">55.0</text>
<text x="1239" y="639" font-family="Arial" font-size="15">45.0</text>
<rect x="1274" y="605" width="77" height="38" fill="#c6bea8" stroke-width="0"/>
<line x1="1293" y1="606" x2="1293" y2="642" stroke="black" stroke-width="1" stroke-dasharray="3,3"/>
<line x1="1313" y1="606" x2="1313" y2="642" stroke="black" stroke-width="1" stroke-dasharray="3,3"/>
<line x1="1332" y1="606" x2="1332" y2="642" stroke="black" stroke-width="1" stroke-dasharray="3,3"/>
<rect x="1274" y="613" width="42" height="8" fill="#000000" stroke-width="0"/>
<rect x="1274" y="630" width="35" height="8" fill="#000000" stroke-width="0"/>
<rect x="1274" y="605" width="77" height="38" fill-opacity="0" stroke="#000000" stroke-width="1"/>
<rect x="1169" y="581" width="182" height="62" fill-opacity="0" stroke="#000000" stroke-width="1"/>
</g>
<g id="m3">
<rect x="1595" y="581" width="182" height="62" fill="#f8eed2" stroke-width="0"/>
<text x="1628" y="600" font-family="Arial" font-size="15" font-weight="bold">m3: Who wins?</text>
<line x1="1595" y1="605" x2="1777" y2="605" stroke="#000000" stroke-width="1"/>
<text x="1608" y="622" font-family="Arial" font-size="15">carla</text>
<text x="1608" y="639" font-family="Arial" font-size="15">alice</text>
<text x="1665" y="622" font-family="Arial" font-size="15">55.0</text>
<text x="1665" y="639" font-family="Arial" font-size="15">45.0</text>
<rect x="1700" y="605" width="77" height="38" fill="#c6bea8" stroke-width="0"/>
<line x1="1719" y1="606" x2="1719" y2="642" stroke="black" stroke-width="1" stroke-dasharray="3,3"/>
<line x1="1739" y1="606" x2="1739" y2="642" stroke="black" stroke-width="1" stroke-dasharray="3,3"/>
<line x1="1758" y1="606" x2="1758" y2="642" stroke="black" stroke-width="1" stroke-dasharray="3,3"/>
<rect x="1700" y="613" width="42" height="8" fill="#000000" stroke-width="0"/>
<rect x="1700" y="630" width="35" height="8" fill="#000000" stroke-width="0"/>
<rect x="1700" y="605" width="77" height="38" fill-opacity="0" stroke="#000000" stroke-width="1"/>
<rect x="1595" y="581" width="182" height="62" fill-opacity="0" stroke="#000000" stroke-width="1"/>
</g>
<g id="Jenny_str">
<rect x="87" y="188" width="222" height="391" fill="#f8eed2" stroke-width="0"/>
<text x="161" y="207" font-family="Arial" font-size="15" font-weight="bold">Jenny_str</text>
<line x1="87" y1="212" x2="309" y2="212" stroke="#000000" stroke-width="1"/>
<text x="100" y="229" font-family="Arial" font-size="15">0 to 0.05</text>
<text x="100" y="246" font-family="Arial" font-size="15">0.05 to 0.1</text>
<text x="100" y="263" font-family="Arial" font-size="15">0.1 to 0.15</text>
<text x="100" y="280" font-family="Arial" font-size="15">0.15 to 0.2</text>
<text x="100" y="297" font-family="Arial" font-size="15">0.2 to 0.25</text>
<text x="100" y="314" font-family="Arial" font-size="15">0.25 to 0.3</text>
<text x="100" y="331" font-family="Arial" font-size="15">0.3 to 0.35</text>
<text x="100" y="348" font-family="Arial" font-size="15">0.35 to 0.4</text>
<text x="100" y="365" font-family="Arial" font-size="15">0.4 to 0.45</text>
<text x="100" y="382" font-family="Arial" font-size="15">0.45 to 0.5</text>
<text x="100" y="399" font-family="Arial" font-size="15">0.5 to 0.55</text>
<text x="100" y="416" font-family="Arial" font-size="15">0.55 to 0.6</text>
<text x="100" y="433" font-family="Arial" font-size="15">0.6 to 0.65</text>
<text x="100" y="450" font-family="Arial" font-size="15">0.65 to 0.7</text>
<text x="100" y="467" font-family="Arial" font-size="15">0.7 to 0.75</text>
<text x="100" y="484" font-family="Arial" font-size="15">0.75 to 0.8</text>
<text x="100" y="501" font-family="Arial" font-size="15">0.8 to 0.85</text>
<text x="100" y="518" font-family="Arial" font-size="15">0.85 to 0.9</text>
<text x="100" y="535" font-family="Arial" font-size="15">0.9 to 0.95</text>
<text x="100" y="552" font-family="Arial" font-size="15">0.95 to 1</text>
<text x="197" y="229" font-family="Arial" font-size="15">0.01</text>
<text x="197" y="246" font-family="Arial" font-size="15">0.01</text>
<text x="197" y="263" font-family="Arial" font-size="15">0.01</text>
<text x="197" y="280" font-family="Arial" font-size="15">0.01</text>
<text x="197" y="297" font-family="Arial" font-size="15">0.01</text>
<text x="197" y="314" font-family="Arial" font-size="15">.010</text>
<text x="197" y="331" font-family="Arial" font-size="15">.012</text>
<text x="197" y="348" font-family="Arial" font-size="15">.039</text>
<text x="197" y="365" font-family="Arial" font-size="15">0.21</text>
<text x="197" y="382" font-family="Arial" font-size="15">0.83</text>
<text x="197" y="399" font-family="Arial" font-size="15">2.42</text>
<text x="197" y="416" font-family="Arial" font-size="15">5.38</text>
<text x="197" y="433" font-family="Arial" font-size="15">9.55</text>
<text x="197" y="450" font-family="Arial" font-size="15">14.0</text>
<text x="197" y="467" font-family="Arial" font-size="15">17.0</text>
<text x="197" y="484" font-family="Arial" font-size="15">17.3</text>
<text x="197" y="501" font-family="Arial" font-size="15">14.7</text>
<text x="197" y="518" font-family="Arial" font-size="15">10.1</text>
<text x="197" y="535" font-family="Arial" font-size="15">5.52</text>
<text x="197" y="552" font-family="Arial" font-size="15">2.88</text>
<rect x="232" y="212" width="77" height="344" fill="#c6bea8" stroke-width="0"/>
<rect x="232" y="356" width="1" height="8" fill="#000000" stroke-width="0"/>
<rect x="232" y="373" width="3" height="8" fill="#000000" stroke-width="0"/>
<rect x="232" y="390" width="9" height="8" fill="#000000" stroke-width="0"/>
<rect x="232" y="407" width="19" height="8" fill="#000000" stroke-width="0"/>
<rect x="232" y="424" width="34" height="8" fill="#000000" stroke-width="0"/>
<rect x="232" y="441" width="50" height="8" fill="#000000" stroke-width="0"/>
<rect x="232" y="458" width="60" height="8" fill="#000000" stroke-width="0"/>
<rect x="232" y="475" width="62" height="8" fill="#000000" stroke-width="0"/>
<rect x="232" y="492" width="52" height="8" fill="#000000" stroke-width="0"/>
<rect x="232" y="509" width="36" height="8" fill="#000000" stroke-width="0"/>
<rect x="232" y="526" width="20" height="8" fill="#000000" stroke-width="0"/>
<rect x="232" y="543" width="10" height="8" fill="#000000" stroke-width="0"/>
<rect x="232" y="212" width="77" height="344" fill-opacity="0" stroke="#000000" stroke-width="1"/>
<line x1="87" y1="556" x2="309" y2="556" stroke="#000000" stroke-width="1"/>
<text x="155" y="574" font-family="Arial" font-size="15">0.749 &#177; 0.11</text>
<rect x="87" y="188" width="222" height="391" fill-opacity="0" stroke="#000000" stroke-width="1"/>
</g>
<g id="M2">
<rect x="323" y="653" width="182" height="62" fill="#f8eed2" stroke-width="0"/>
<text x="357" y="672" font-family="Arial" font-size="15" font-weight="bold">M2: Who wins?</text>
<line x1="323" y1="677" x2="505" y2="677" stroke="#000000" stroke-width="1"/>
<text x="336" y="694" font-family="Arial" font-size="15">carla</text>
<text x="336" y="711" font-family="Arial" font-size="15">alice</text>
<text x="393" y="694" font-family="Arial" font-size="15">55.0</text>
<text x="393" y="711" font-family="Arial" font-size="15">45.0</text>
<rect x="428" y="677" width="77" height="38" fill="#c6bea8" stroke-width="0"/>
<line x1="447" y1="678" x2="447" y2="714" stroke="black" stroke-width="1" stroke-dasharray="3,3"/>
<line x1="467" y1="678" x2="467" y2="714" stroke="black" stroke-width="1" stroke-dasharray="3,3"/>
<line x1="486" y1="678" x2="486" y2="714" stroke="black" stroke-width="1" stroke-dasharray="3,3"/>
<rect x="428" y="685" width="42" height="8" fill="#000000" stroke-width="0"/>
<rect x="428" y="702" width="35" height="8" fill="#000000" stroke-width="0"/>
<rect x="428" y="677" width="77" height="38" fill-opacity="0" stroke="#000000" stroke-width="1"/>
<rect x="323" y="653" width="182" height="62" fill-opacity="0" stroke="#000000" stroke-width="1"/>
</g>
<g id="M3">
<rect x="532" y="659" width="183" height="62" fill="#f8eed2" stroke-width="0"/>
<text x="566" y="678" font-family="Arial" font-size="15" font-weight="bold">M3: Who wins?</text>
<line x1="532" y1="683" x2="715" y2="683" stroke="#000000" stroke-width="1"/>
<text x="545" y="700" font-family="Arial" font-size="15">jenny</text>
<text x="545" y="717" font-family="Arial" font-size="15">alice</text>
<text x="603" y="700" font-family="Arial" font-size="15">74.9</text>
<text x="603" y="717" font-family="Arial" font-size="15">25.1</text>
<rect x="638" y="683" width="77" height="38" fill="#c6bea8" stroke-width="0"/>
<line x1="657" y1="684" x2="657" y2="720" stroke="black" stroke-width="1" stroke-dasharray="3,3"/>
<line x1="677" y1="684" x2="677" y2="720" stroke="black" stroke-width="1" stroke-dasharray="3,3"/>
<line x1="696" y1="684" x2="696" y2="720" stroke="black" stroke-width="1" stroke-dasharray="3,3"/>
<rect x="638" y="691" width="58" height="8" fill="#000000" stroke-width="0"/>
<rect x="638" y="708" width="19" height="8" fill="#000000" stroke-width="0"/>
<rect x="638" y="683" width="77" height="38" fill-opacity="0" stroke="#000000" stroke-width="1"/>
<rect x="532" y="659" width="183" height="62" fill-opacity="0" stroke="#000000" stroke-width="1"/>
</g>
<g id="M1">
<rect x="106" y="653" width="183" height="62" fill="#f8eed2" stroke-width="0"/>
<text x="140" y="672" font-family="Arial" font-size="15" font-weight="bold">M1: Who wins?</text>
<line x1="106" y1="677" x2="289" y2="677" stroke="#000000" stroke-width="1"/>
<text x="119" y="694" font-family="Arial" font-size="15">jenny</text>
<text x="119" y="711" font-family="Arial" font-size="15">alice</text>
<text x="177" y="694" font-family="Arial" font-size="15">74.9</text>
<text x="177" y="711" font-family="Arial" font-size="15">25.1</text>
<rect x="212" y="677" width="77" height="38" fill="#c6bea8" stroke-width="0"/>
<line x1="231" y1="678" x2="231" y2="714" stroke="black" stroke-width="1" stroke-dasharray="3,3"/>
<line x1="251" y1="678" x2="251" y2="714" stroke="black" stroke-width="1" stroke-dasharray="3,3"/>
<line x1="270" y1="678" x2="270" y2="714" stroke="black" stroke-width="1" stroke-dasharray="3,3"/>
<rect x="212" y="685" width="58" height="8" fill="#000000" stroke-width="0"/>
<rect x="212" y="702" width="19" height="8" fill="#000000" stroke-width="0"/>
<rect x="212" y="677" width="77" height="38" fill-opacity="0" stroke="#000000" stroke-width="1"/>
<rect x="106" y="653" width="183" height="62" fill-opacity="0" stroke="#000000" stroke-width="1"/>
</g>
<g id="Carla_str">
<rect x="531" y="188" width="281" height="391" fill="#f8eed2" stroke-width="0"/>
<text x="548" y="207" font-family="Arial" font-size="15" font-weight="bold">Carla_str:  BetaDist (Carla, 11, 9) </text>
<line x1="531" y1="212" x2="812" y2="212" stroke="#000000" stroke-width="1"/>
<text x="544" y="229" font-family="Arial" font-size="15">0 to 0.05</text>
<text x="544" y="246" font-family="Arial" font-size="15">0.05 to 0.1</text>
<text x="544" y="263" font-family="Arial" font-size="15">0.1 to 0.15</text>
<text x="544" y="280" font-family="Arial" font-size="15">0.15 to 0.2</text>
<text x="544" y="297" font-family="Arial" font-size="15">0.2 to 0.25</text>
<text x="544" y="314" font-family="Arial" font-size="15">0.25 to 0.3</text>
<text x="544" y="331" font-family="Arial" font-size="15">0.3 to 0.35</text>
<text x="544" y="348" font-family="Arial" font-size="15">0.35 to 0.4</text>
<text x="544" y="365" font-family="Arial" font-size="15">0.4 to 0.45</text>
<text x="544" y="382" font-family="Arial" font-size="15">0.45 to 0.5</text>
<text x="544" y="399" font-family="Arial" font-size="15">0.5 to 0.55</text>
<text x="544" y="416" font-family="Arial" font-size="15">0.55 to 0.6</text>
<text x="544" y="433" font-family="Arial" font-size="15">0.6 to 0.65</text>
<text x="544" y="450" font-family="Arial" font-size="15">0.65 to 0.7</text>
<text x="544" y="467" font-family="Arial" font-size="15">0.7 to 0.75</text>
<text x="544" y="484" font-family="Arial" font-size="15">0.75 to 0.8</text>
<text x="544" y="501" font-family="Arial" font-size="15">0.8 to 0.85</text>
<text x="544" y="518" font-family="Arial" font-size="15">0.85 to 0.9</text>
<text x="544" y="535" font-family="Arial" font-size="15">0.9 to 0.95</text>
<text x="544" y="552" font-family="Arial" font-size="15">0.95 to 1</text>
<text x="705" y="229" font-family="Arial" font-size="15"> 0 +</text>
<text x="705" y="246" font-family="Arial" font-size="15"> 0 +</text>
<text x="700" y="263" font-family="Arial" font-size="15">.002</text>
<text x="700" y="280" font-family="Arial" font-size="15">.029</text>
<text x="700" y="297" font-family="Arial" font-size="15">0.20</text>
<text x="700" y="314" font-family="Arial" font-size="15">0.83</text>
<text x="700" y="331" font-family="Arial" font-size="15">2.42</text>
<text x="700" y="348" font-family="Arial" font-size="15">5.38</text>
<text x="700" y="365" font-family="Arial" font-size="15">9.56</text>
<text x="700" y="382" font-family="Arial" font-size="15">14.0</text>
<text x="700" y="399" font-family="Arial" font-size="15">17.0</text>
<text x="700" y="416" font-family="Arial" font-size="15">17.4</text>
<text x="700" y="433" font-family="Arial" font-size="15">14.7</text>
<text x="700" y="450" font-family="Arial" font-size="15">10.2</text>
<text x="700" y="467" font-family="Arial" font-size="15">5.52</text>
<text x="700" y="484" font-family="Arial" font-size="15">2.21</text>
<text x="700" y="501" font-family="Arial" font-size="15">0.58</text>
<text x="700" y="518" font-family="Arial" font-size="15">.081</text>
<text x="700" y="535" font-family="Arial" font-size="15">.004</text>
<text x="705" y="552" font-family="Arial" font-size="15"> 0 +</text>
<rect x="735" y="212" width="77" height="344" fill="#c6bea8" stroke-width="0"/>
<rect x="735" y="288" width="1" height="8" fill="#000000" stroke-width="0"/>
<rect x="735" y="305" width="3" height="8" fill="#000000" stroke-width="0"/>
<rect x="735" y="322" width="9" height="8" fill="#000000" stroke-width="0"/>
<rect x="735" y="339" width="19" height="8" fill="#000000" stroke-width="0"/>
<rect x="735" y="356" width="34" height="8" fill="#000000" stroke-width="0"/>
<rect x="735" y="373" width="50" height="8" fill="#000000" stroke-width="0"/>
<rect x="735" y="390" width="60" height="8" fill="#000000" stroke-width="0"/>
<rect x="735" y="407" width="62" height="8" fill="#000000" stroke-width="0"/>
<rect x="735" y="424" width="52" height="8" fill="#000000" stroke-width="0"/>
<rect x="735" y="441" width="36" height="8" fill="#000000" stroke-width="0"/>
<rect x="735" y="458" width="20" height="8" fill="#000000" stroke-width="0"/>
<rect x="735" y="475" width="8" height="8" fill="#000000" stroke-width="0"/>
<rect x="735" y="492" width="2" height="8" fill="#000000" stroke-width="0"/>
<rect x="735" y="212" width="77" height="344" fill-opacity="0" stroke="#000000" stroke-width="1"/>
<line x1="531" y1="556" x2="812" y2="556" stroke="#000000" stroke-width="1"/>
<text x="633" y="574" font-family="Arial" font-size="15">0.55 &#177; 0.11</text>
<rect x="531" y="188" width="281" height="391" fill-opacity="0" stroke="#000000" stroke-width="1"/>
</g>
<g id="two">
<rect x="364" y="803" width="220" height="62" fill="#6fb7ff" stroke-width="0"/>
<text x="380" y="822" font-family="Arial" font-size="15" font-weight="bold">two: alice wins 2 in a row</text>
<line x1="364" y1="827" x2="584" y2="827" stroke="#000000" stroke-width="1"/>
<text x="377" y="844" font-family="Arial" font-size="15">true</text>
<text x="377" y="861" font-family="Arial" font-size="15">false</text>
<text x="472" y="844" font-family="Arial" font-size="15">21.0</text>
<text x="472" y="861" font-family="Arial" font-size="15">79.0</text>
<rect x="507" y="827" width="77" height="38" fill="#5992cc" stroke-width="0"/>
<line x1="526" y1="828" x2="526" y2="864" stroke="black" stroke-width="1" stroke-dasharray="3,3"/>
<line x1="546" y1="828" x2="546" y2="864" stroke="black" stroke-width="1" stroke-dasharray="3,3"/>
<line x1="565" y1="828" x2="565" y2="864" stroke="black" stroke-width="1" stroke-dasharray="3,3"/>
<rect x="507" y="835" width="16" height="8" fill="#000000" stroke-width="0"/>
<rect x="507" y="852" width="61" height="8" fill="#000000" stroke-width="0"/>
<rect x="507" y="827" width="77" height="38" fill-opacity="0" stroke="#000000" stroke-width="1"/>
<rect x="364" y="803" width="220" height="62" fill-opacity="0" stroke="#000000" stroke-width="1"/>
</g>
<g id="wins">
<rect x="114" y="780" width="168" height="119" fill="#6fb7ff" stroke-width="0"/>
<text x="181" y="799" font-family="Arial" font-size="15" font-weight="bold">wins</text>
<line x1="114" y1="804" x2="282" y2="804" stroke="#000000" stroke-width="1"/>
<text x="127" y="821" font-family="Arial" font-size="15">0</text>
<text x="127" y="838" font-family="Arial" font-size="15">1</text>
<text x="127" y="855" font-family="Arial" font-size="15">2</text>
<text x="127" y="872" font-family="Arial" font-size="15">3</text>
<text x="170" y="821" font-family="Arial" font-size="15">33.3</text>
<text x="170" y="838" font-family="Arial" font-size="15">42.2</text>
<text x="170" y="855" font-family="Arial" font-size="15">20.5</text>
<text x="170" y="872" font-family="Arial" font-size="15">3.99</text>
<rect x="205" y="804" width="77" height="72" fill="#5992cc" stroke-width="0"/>
<line x1="224" y1="805" x2="224" y2="875" stroke="black" stroke-width="1" stroke-dasharray="3,3"/>
<line x1="244" y1="805" x2="244" y2="875" stroke="black" stroke-width="1" stroke-dasharray="3,3"/>
<line x1="263" y1="805" x2="263" y2="875" stroke="black" stroke-width="1" stroke-dasharray="3,3"/>
<rect x="205" y="812" width="26" height="8" fill="#000000" stroke-width="0"/>
<rect x="205" y="829" width="33" height="8" fill="#000000" stroke-width="0"/>
<rect x="205" y="846" width="16" height="8" fill="#000000" stroke-width="0"/>
<rect x="205" y="863" width="3" height="8" fill="#000000" stroke-width="0"/>
<rect x="205" y="804" width="77" height="72" fill-opacity="0" stroke="#000000" stroke-width="1"/>
<line x1="114" y1="876" x2="282" y2="876" stroke="#000000" stroke-width="1"/>
<text x="155" y="894" font-family="Arial" font-size="15">0.952 &#177; 0.83</text>
<rect x="114" y="780" width="168" height="119" fill-opacity="0" stroke="#000000" stroke-width="1"/>
</g>
<g id="Two">
<rect x="1423" y="743" width="225" height="62" fill="#6fb7ff" stroke-width="0"/>
<text x="1439" y="762" font-family="Arial" font-size="15" font-weight="bold">Two: alice wins 2 in a row</text>
<line x1="1423" y1="767" x2="1648" y2="767" stroke="#000000" stroke-width="1"/>
<text x="1436" y="784" font-family="Arial" font-size="15">true</text>
<text x="1436" y="801" font-family="Arial" font-size="15">false</text>
<text x="1536" y="784" font-family="Arial" font-size="15">18.5</text>
<text x="1536" y="801" font-family="Arial" font-size="15">81.5</text>
<rect x="1571" y="767" width="77" height="38" fill="#5992cc" stroke-width="0"/>
<line x1="1590" y1="768" x2="1590" y2="804" stroke="black" stroke-width="1" stroke-dasharray="3,3"/>
<line x1="1610" y1="768" x2="1610" y2="804" stroke="black" stroke-width="1" stroke-dasharray="3,3"/>
<line x1="1629" y1="768" x2="1629" y2="804" stroke="black" stroke-width="1" stroke-dasharray="3,3"/>
<rect x="1571" y="775" width="14" height="8" fill="#000000" stroke-width="0"/>
<rect x="1571" y="792" width="63" height="8" fill="#000000" stroke-width="0"/>
<rect x="1571" y="767" width="77" height="38" fill-opacity="0" stroke="#000000" stroke-width="1"/>
<rect x="1423" y="743" width="225" height="62" fill-opacity="0" stroke="#000000" stroke-width="1"/>
</g>
<g id="Wins">
<rect x="1176" y="720" width="168" height="119" fill="#6fb7ff" stroke-width="0"/>
<text x="1242" y="739" font-family="Arial" font-size="15" font-weight="bold">Wins</text>
<line x1="1176" y1="744" x2="1344" y2="744" stroke="#000000" stroke-width="1"/>
<text x="1189" y="761" font-family="Arial" font-size="15">0</text>
<text x="1189" y="778" font-family="Arial" font-size="15">1</text>
<text x="1189" y="795" font-family="Arial" font-size="15">2</text>
<text x="1189" y="812" font-family="Arial" font-size="15">3</text>
<text x="1232" y="761" font-family="Arial" font-size="15">24.9</text>
<text x="1232" y="778" font-family="Arial" font-size="15">41.7</text>
<text x="1232" y="795" font-family="Arial" font-size="15">27.0</text>
<text x="1232" y="812" font-family="Arial" font-size="15">6.46</text>
<rect x="1267" y="744" width="77" height="72" fill="#5992cc" stroke-width="0"/>
<line x1="1286" y1="745" x2="1286" y2="815" stroke="black" stroke-width="1" stroke-dasharray="3,3"/>
<line x1="1306" y1="745" x2="1306" y2="815" stroke="black" stroke-width="1" stroke-dasharray="3,3"/>
<line x1="1325" y1="745" x2="1325" y2="815" stroke="black" stroke-width="1" stroke-dasharray="3,3"/>
<rect x="1267" y="752" width="19" height="8" fill="#000000" stroke-width="0"/>
<rect x="1267" y="769" width="32" height="8" fill="#000000" stroke-width="0"/>
<rect x="1267" y="786" width="21" height="8" fill="#000000" stroke-width="0"/>
<rect x="1267" y="803" width="5" height="8" fill="#000000" stroke-width="0"/>
<rect x="1267" y="744" width="77" height="72" fill-opacity="0" stroke="#000000" stroke-width="1"/>
<line x1="1176" y1="816" x2="1344" y2="816" stroke="#000000" stroke-width="1"/>
<text x="1222" y="834" font-family="Arial" font-size="15">1.15 &#177; 0.87</text>
<rect x="1176" y="720" width="168" height="119" fill-opacity="0" stroke="#000000" stroke-width="1"/>
</g>
<g id="title">
<rect x="267" y="113" width="343" height="62" rx="16" ry="16" fill="#ffb591" stroke-width="0"/>
<rect x="268" y="114" width="341" height="60" rx="16" ry="16" fill-opacity="0" stroke="#000000" stroke-width="2"/>
<text x="288" y="137" font-family="Arial" font-size="22.5">title: THE TENNIS MATCH - </text>
<text x="288" y="165" font-family="Arial" font-size="22.5">Jenny--Carla--Jenny</text>
</g>
<g id="title1">
<rect x="1292" y="41" width="356" height="62" rx="16" ry="16" fill="#ffb591" stroke-width="0"/>
<rect x="1293" y="42" width="354" height="60" rx="16" ry="16" fill-opacity="0" stroke="#000000" stroke-width="2"/>
<text x="1313" y="65" font-family="Arial" font-size="22.5">title1: THE TENNIS MATCH - </text>
<text x="1313" y="93" font-family="Arial" font-size="22.5">Carla--Jenny--Carla</text>
</g>
<g id="Jenny_Str">
<rect x="1611" y="116" width="222" height="391" fill="#f8eed2" stroke-width="0"/>
<text x="1684" y="135" font-family="Arial" font-size="15" font-weight="bold">Jenny_Str</text>
<line x1="1611" y1="140" x2="1833" y2="140" stroke="#000000" stroke-width="1"/>
<text x="1624" y="157" font-family="Arial" font-size="15">0 to 0.05</text>
<text x="1624" y="174" font-family="Arial" font-size="15">0.05 to 0.1</text>
<text x="1624" y="191" font-family="Arial" font-size="15">0.1 to 0.15</text>
<text x="1624" y="208" font-family="Arial" font-size="15">0.15 to 0.2</text>
<text x="1624" y="225" font-family="Arial" font-size="15">0.2 to 0.25</text>
<text x="1624" y="242" font-family="Arial" font-size="15">0.25 to 0.3</text>
<text x="1624" y="259" font-family="Arial" font-size="15">0.3 to 0.35</text>
<text x="1624" y="276" font-family="Arial" font-size="15">0.35 to 0.4</text>
<text x="1624" y="293" font-family="Arial" font-size="15">0.4 to 0.45</text>
<text x="1624" y="310" font-family="Arial" font-size="15">0.45 to 0.5</text>
<text x="1624" y="327" font-family="Arial" font-size="15">0.5 to 0.55</text>
<text x="1624" y="344" font-family="Arial" font-size="15">0.55 to 0.6</text>
<text x="1624" y="361" font-family="Arial" font-size="15">0.6 to 0.65</text>
<text x="1624" y="378" font-family="Arial" font-size="15">0.65 to 0.7</text>
<text x="1624" y="395" font-family="Arial" font-size="15">0.7 to 0.75</text>
<text x="1624" y="412" font-family="Arial" font-size="15">0.75 to 0.8</text>
<text x="1624" y="429" font-family="Arial" font-size="15">0.8 to 0.85</text>
<text x="1624" y="446" font-family="Arial" font-size="15">0.85 to 0.9</text>
<text x="1624" y="463" font-family="Arial" font-size="15">0.9 to 0.95</text>
<text x="1624" y="480" font-family="Arial" font-size="15">0.95 to 1</text>
<text x="1721" y="157" font-family="Arial" font-size="15">0.01</text>
<text x="1721" y="174" font-family="Arial" font-size="15">0.01</text>
<text x="1721" y="191" font-family="Arial" font-size="15">0.01</text>
<text x="1721" y="208" font-family="Arial" font-size="15">0.01</text>
<text x="1721" y="225" font-family="Arial" font-size="15">0.01</text>
<text x="1721" y="242" font-family="Arial" font-size="15">.010</text>
<text x="1721" y="259" font-family="Arial" font-size="15">.012</text>
<text x="1721" y="276" font-family="Arial" font-size="15">.039</text>
<text x="1721" y="293" font-family="Arial" font-size="15">0.21</text>
<text x="1721" y="310" font-family="Arial" font-size="15">0.83</text>
<text x="1721" y="327" font-family="Arial" font-size="15">2.42</text>
<text x="1721" y="344" font-family="Arial" font-size="15">5.38</text>
<text x="1721" y="361" font-family="Arial" font-size="15">9.55</text>
<text x="1721" y="378" font-family="Arial" font-size="15">14.0</text>
<text x="1721" y="395" font-family="Arial" font-size="15">17.0</text>
<text x="1721" y="412" font-family="Arial" font-size="15">17.3</text>
<text x="1721" y="429" font-family="Arial" font-size="15">14.7</text>
<text x="1721" y="446" font-family="Arial" font-size="15">10.1</text>
<text x="1721" y="463" font-family="Arial" font-size="15">5.52</text>
<text x="1721" y="480" font-family="Arial" font-size="15">2.88</text>
<rect x="1756" y="140" width="77" height="344" fill="#c6bea8" stroke-width="0"/>
<rect x="1756" y="284" width="1" height="8" fill="#000000" stroke-width="0"/>
<rect x="1756" y="301" width="3" height="8" fill="#000000" stroke-width="0"/>
<rect x="1756" y="318" width="9" height="8" fill="#000000" stroke-width="0"/>
<rect x="1756" y="335" width="19" height="8" fill="#000000" stroke-width="0"/>
<rect x="1756" y="352" width="34" height="8" fill="#000000" stroke-width="0"/>
<rect x="1756" y="369" width="50" height="8" fill="#000000" stroke-width="0"/>
<rect x="1756" y="386" width="60" height="8" fill="#000000" stroke-width="0"/>
<rect x="1756" y="403" width="62" height="8" fill="#000000" stroke-width="0"/>
<rect x="1756" y="420" width="52" height="8" fill="#000000" stroke-width="0"/>
<rect x="1756" y="437" width="36" height="8" fill="#000000" stroke-width="0"/>
<rect x="1756" y="454" width="20" height="8" fill="#000000" stroke-width="0"/>
<rect x="1756" y="471" width="10" height="8" fill="#000000" stroke-width="0"/>
<rect x="1756" y="140" width="77" height="344" fill-opacity="0" stroke="#000000" stroke-width="1"/>
<line x1="1611" y1="484" x2="1833" y2="484" stroke="#000000" stroke-width="1"/>
<text x="1679" y="502" font-family="Arial" font-size="15">0.749 &#177; 0.11</text>
<rect x="1611" y="116" width="222" height="391" fill-opacity="0" stroke="#000000" stroke-width="1"/>
</g>
<g id="rules">
<rect x="592" y="34" width="437" height="29" rx="15" ry="15" fill="#9fe0ff" stroke-width="0"/>
<rect x="593" y="35" width="435" height="27" rx="15" ry="15" fill-opacity="0" stroke="#000000" stroke-width="2"/>
<text x="609" y="55" font-family="Arial" font-size="17.5">rules: Jenny (Carla) =  clip( min, max,  Carla + d )</text>
</g>
<g id="rules3">
<rect x="762" y="4" width="265" height="29" rx="15" ry="15" fill="#9fe0ff" stroke-width="0"/>
<rect x="763" y="5" width="263" height="27" rx="15" ry="15" fill-opacity="0" stroke="#000000" stroke-width="2"/>
<text x="779" y="25" font-family="Arial" font-size="17.5">rules3: Powered with Netica</text>
</g>
<g id="max">
<rect x="339" y="30" width="114" height="25" rx="13" ry="13" fill="#ffffb4" stroke-width="0"/>
<rect x="340" y="31" width="112" height="23" rx="13" ry="13" fill-opacity="0" stroke="#000000" stroke-width="2"/>
<text x="354" y="48" font-family="Arial" font-size="15">max = 0.999</text>
</g>
<g id="min">
<rect x="221" y="30" width="110" height="25" rx="13" ry="13" fill="#ffffb4" stroke-width="0"/>
<rect x="222" y="31" width="108" height="23" rx="13" ry="13" fill-opacity="0" stroke="#000000" stroke-width="2"/>
<text x="236" y="48" font-family="Arial" font-size="15">min = 0.001</text>
</g>
<g id="d">
<rect x="460" y="30" width="76" height="25" rx="13" ry="13" fill="#ffffb4" stroke-width="0"/>
<rect x="461" y="31" width="74" height="23" rx="13" ry="13" fill-opacity="0" stroke="#000000" stroke-width="2"/>
<text x="475" y="48" font-family="Arial" font-size="15">d = 0.2</text>
</g>
<g id="equations">
<rect x="1051" y="10" width="130" height="29" rx="15" ry="15" fill="#dbdeb8" stroke-width="0"/>
<rect x="1052" y="11" width="128" height="27" rx="15" ry="15" fill-opacity="0" stroke="#000000" stroke-width="2"/>
<text x="1068" y="31" font-family="Arial" font-size="17.5">equations: -</text>
</g>
<g id="teal">
<rect x="686" y="772" width="429" height="52" rx="13" ry="13" fill="#a8ffff" stroke-width="0"/>
<rect x="687" y="773" width="427" height="50" rx="13" ry="13" fill-opacity="0" stroke="#000000" stroke-width="2"/>
<text x="703" y="793" font-family="Arial" font-size="17.5">teal: Notice that if best 2 out of 3 were needed, </text>
<text x="703" y="816" font-family="Arial" font-size="17.5">then it's best to play the weakest palyer twice.</text>
</g>

</svg>

