<?xml version="1.0" encoding="UTF-8"?>
<svg width="1770" height="682" viewBox="0 0 1770 682"
  xml:space="preserve"
  version="1.1"
  xmlns="http://www.w3.org/2000/svg">

<title>Graphic of net "C:\Users\pasca\Documents\NETICA EXAMPLES\THE TENNIS MATCH PUZZLE2\THE TENNIS MATCH PUZZLE 1" generated by BerckerP using Netica 7.01 on Mar 03, 2026 at 02:49:39 UTC.</title>

<polygon points="1087.02,408.938 1092.2,402.835 1098,413" fill="#000000" stroke="none"/>
<polyline points="924,264 1090,406" stroke="#000000" stroke-width="1" fill="none"/>
<polygon points="1130,402 1138,402 1134,413" fill="#000000" stroke="none"/>
<polyline points="1134,264 1134,403" stroke="#000000" stroke-width="1" fill="none"/>
<polygon points="1175.8,402.835 1180.98,408.938 1170,413" fill="#000000" stroke="none"/>
<polyline points="1344,264 1178,406" stroke="#000000" stroke-width="1" fill="none"/>
<polygon points="361.007,444.982 366.155,438.859 372,449" fill="#000000" stroke="none"/>
<polyline points="204,306 364,442" stroke="#000000" stroke-width="1" fill="none"/>
<polygon points="404,438 412,438 408,449" fill="#000000" stroke="none"/>
<polyline points="408,306 408,439" stroke="#000000" stroke-width="1" fill="none"/>
<polygon points="449.845,438.859 454.993,444.982 444,449" fill="#000000" stroke="none"/>
<polyline points="612,306 452,442" stroke="#000000" stroke-width="1" fill="none"/>
<g id="teal">
<rect x="1445" y="22" width="62" height="29" rx="15" ry="15" fill="#a8ffff" stroke-width="0"/>
<rect x="1446" y="23" width="60" height="27" rx="15" ry="15" fill-opacity="0" stroke="#000000" stroke-width="2"/>
<text x="1462" y="43" font-family="Arial" font-size="17.5">teal</text>
</g>
<g id="rules3">
<rect x="684" y="10" width="265" height="29" rx="15" ry="15" fill="#9fe0ff" stroke-width="0"/>
<rect x="685" y="11" width="263" height="27" rx="15" ry="15" fill-opacity="0" stroke="#000000" stroke-width="2"/>
<text x="701" y="31" font-family="Arial" font-size="17.5">rules3: Powered with Netica</text>
</g>
<g id="rules">
<rect x="1534" y="22" width="124" height="29" rx="15" ry="15" fill="#9fe0ff" stroke-width="0"/>
<rect x="1535" y="23" width="122" height="27" rx="15" ry="15" fill-opacity="0" stroke="#000000" stroke-width="2"/>
<text x="1551" y="43" font-family="Arial" font-size="17.5">rules: rules</text>
</g>
<g id="text1">
<rect x="953" y="4" width="458" height="29" rx="15" ry="15" fill="#ffb3d9" stroke-width="0"/>
<rect x="954" y="5" width="456" height="27" rx="15" ry="15" fill-opacity="0" stroke="#000000" stroke-width="2"/>
<text x="970" y="25" font-family="Arial" font-size="17.5">text1: JANE STEET PUZZLE VIA MATT PARKER</text>
</g>
<g id="two1">
<rect x="1019" y="413" width="229" height="62" fill="#6fb7ff" stroke-width="0"/>
<text x="1035" y="432" font-family="Arial" font-size="15" font-weight="bold">two1: alice wins 2 in a row</text>
<line x1="1019" y1="437" x2="1248" y2="437" stroke="#000000" stroke-width="1"/>
<text x="1032" y="454" font-family="Arial" font-size="15">true</text>
<text x="1032" y="471" font-family="Arial" font-size="15">false</text>
<text x="1136" y="454" font-family="Arial" font-size="15">30.0</text>
<text x="1136" y="471" font-family="Arial" font-size="15">70.0</text>
<rect x="1171" y="437" width="77" height="38" fill="#5992cc" stroke-width="0"/>
<line x1="1190" y1="438" x2="1190" y2="474" stroke="black" stroke-width="1" stroke-dasharray="3,3"/>
<line x1="1210" y1="438" x2="1210" y2="474" stroke="black" stroke-width="1" stroke-dasharray="3,3"/>
<line x1="1229" y1="438" x2="1229" y2="474" stroke="black" stroke-width="1" stroke-dasharray="3,3"/>
<rect x="1171" y="445" width="23" height="8" fill="#000000" stroke-width="0"/>
<rect x="1171" y="462" width="54" height="8" fill="#000000" stroke-width="0"/>
<rect x="1171" y="437" width="77" height="38" fill-opacity="0" stroke="#000000" stroke-width="1"/>
<rect x="1019" y="413" width="229" height="62" fill-opacity="0" stroke="#000000" stroke-width="1"/>
</g>
<g id="M5">
<rect x="1042" y="233" width="183" height="62" fill="#f8eed2" stroke-width="0"/>
<text x="1076" y="252" font-family="Arial" font-size="15" font-weight="bold">M5: Who wins?</text>
<line x1="1042" y1="257" x2="1225" y2="257" stroke="#000000" stroke-width="1"/>
<text x="1055" y="274" font-family="Arial" font-size="15">jenny</text>
<text x="1055" y="291" font-family="Arial" font-size="15">alice</text>
<text x="1113" y="274" font-family="Arial" font-size="15">60.0</text>
<text x="1113" y="291" font-family="Arial" font-size="15">40.0</text>
<rect x="1148" y="257" width="77" height="38" fill="#c6bea8" stroke-width="0"/>
<line x1="1167" y1="258" x2="1167" y2="294" stroke="black" stroke-width="1" stroke-dasharray="3,3"/>
<line x1="1187" y1="258" x2="1187" y2="294" stroke="black" stroke-width="1" stroke-dasharray="3,3"/>
<line x1="1206" y1="258" x2="1206" y2="294" stroke="black" stroke-width="1" stroke-dasharray="3,3"/>
<rect x="1148" y="265" width="46" height="8" fill="#000000" stroke-width="0"/>
<rect x="1148" y="282" width="31" height="8" fill="#000000" stroke-width="0"/>
<rect x="1148" y="257" width="77" height="38" fill-opacity="0" stroke="#000000" stroke-width="1"/>
<rect x="1042" y="233" width="183" height="62" fill-opacity="0" stroke="#000000" stroke-width="1"/>
</g>
<g id="M6">
<rect x="1253" y="233" width="182" height="62" fill="#f8eed2" stroke-width="0"/>
<text x="1287" y="252" font-family="Arial" font-size="15" font-weight="bold">M6: Who wins?</text>
<line x1="1253" y1="257" x2="1435" y2="257" stroke="#000000" stroke-width="1"/>
<text x="1266" y="274" font-family="Arial" font-size="15">carla</text>
<text x="1266" y="291" font-family="Arial" font-size="15">alice</text>
<text x="1323" y="274" font-family="Arial" font-size="15">50.0</text>
<text x="1323" y="291" font-family="Arial" font-size="15">50.0</text>
<rect x="1358" y="257" width="77" height="38" fill="#c6bea8" stroke-width="0"/>
<line x1="1377" y1="258" x2="1377" y2="294" stroke="black" stroke-width="1" stroke-dasharray="3,3"/>
<line x1="1397" y1="258" x2="1397" y2="294" stroke="black" stroke-width="1" stroke-dasharray="3,3"/>
<line x1="1416" y1="258" x2="1416" y2="294" stroke="black" stroke-width="1" stroke-dasharray="3,3"/>
<rect x="1358" y="265" width="39" height="8" fill="#000000" stroke-width="0"/>
<rect x="1358" y="282" width="39" height="8" fill="#000000" stroke-width="0"/>
<rect x="1358" y="257" width="77" height="38" fill-opacity="0" stroke="#000000" stroke-width="1"/>
<rect x="1253" y="233" width="182" height="62" fill-opacity="0" stroke="#000000" stroke-width="1"/>
</g>
<g id="M4">
<rect x="833" y="233" width="182" height="62" fill="#f8eed2" stroke-width="0"/>
<text x="867" y="252" font-family="Arial" font-size="15" font-weight="bold">M4: Who wins?</text>
<line x1="833" y1="257" x2="1015" y2="257" stroke="#000000" stroke-width="1"/>
<text x="846" y="274" font-family="Arial" font-size="15">carla</text>
<text x="846" y="291" font-family="Arial" font-size="15">alice</text>
<text x="903" y="274" font-family="Arial" font-size="15">50.0</text>
<text x="903" y="291" font-family="Arial" font-size="15">50.0</text>
<rect x="938" y="257" width="77" height="38" fill="#c6bea8" stroke-width="0"/>
<line x1="957" y1="258" x2="957" y2="294" stroke="black" stroke-width="1" stroke-dasharray="3,3"/>
<line x1="977" y1="258" x2="977" y2="294" stroke="black" stroke-width="1" stroke-dasharray="3,3"/>
<line x1="996" y1="258" x2="996" y2="294" stroke="black" stroke-width="1" stroke-dasharray="3,3"/>
<rect x="938" y="265" width="39" height="8" fill="#000000" stroke-width="0"/>
<rect x="938" y="282" width="39" height="8" fill="#000000" stroke-width="0"/>
<rect x="938" y="257" width="77" height="38" fill-opacity="0" stroke="#000000" stroke-width="1"/>
<rect x="833" y="233" width="182" height="62" fill-opacity="0" stroke="#000000" stroke-width="1"/>
</g>
<g id="equation1">
<rect x="895" y="492" width="479" height="121" rx="12" ry="12" fill="#dbdeb8" stroke-width="0"/>
<rect x="896" y="493" width="477" height="119" rx="12" ry="12" fill-opacity="0" stroke="#000000" stroke-width="2"/>
<text x="912" y="513" font-family="Arial" font-size="17.5">equation1: P (two1 | M4, M5, M6) = </text>
<text x="912" y="559" font-family="Arial" font-size="17.5">M5 == alice &#38;&#38; (M4 == alice || M6 == alice) </text>
<text x="912" y="605" font-family="Arial" font-size="17.5">P (M5 | ) = M5 == jenny ? Jenny_skill :  1 - Jenny_skill</text>
</g>
<g id="title1">
<rect x="954" y="131" width="349" height="62" rx="16" ry="16" fill="#ffb591" stroke-width="0"/>
<rect x="955" y="132" width="347" height="60" rx="16" ry="16" fill-opacity="0" stroke="#000000" stroke-width="2"/>
<text x="975" y="155" font-family="Arial" font-size="22.5">title1: THE TENNIS MATCH -</text>
<text x="975" y="183" font-family="Arial" font-size="22.5">Carla - Jenny - Carla</text>
</g>
<g id="M2">
<rect x="317" y="275" width="182" height="62" fill="#f8eed2" stroke-width="0"/>
<text x="351" y="294" font-family="Arial" font-size="15" font-weight="bold">M2: Who wins?</text>
<line x1="317" y1="299" x2="499" y2="299" stroke="#000000" stroke-width="1"/>
<text x="330" y="316" font-family="Arial" font-size="15">carla</text>
<text x="330" y="333" font-family="Arial" font-size="15">alice</text>
<text x="387" y="316" font-family="Arial" font-size="15">50.0</text>
<text x="387" y="333" font-family="Arial" font-size="15">50.0</text>
<rect x="422" y="299" width="77" height="38" fill="#c6bea8" stroke-width="0"/>
<line x1="441" y1="300" x2="441" y2="336" stroke="black" stroke-width="1" stroke-dasharray="3,3"/>
<line x1="461" y1="300" x2="461" y2="336" stroke="black" stroke-width="1" stroke-dasharray="3,3"/>
<line x1="480" y1="300" x2="480" y2="336" stroke="black" stroke-width="1" stroke-dasharray="3,3"/>
<rect x="422" y="307" width="39" height="8" fill="#000000" stroke-width="0"/>
<rect x="422" y="324" width="39" height="8" fill="#000000" stroke-width="0"/>
<rect x="422" y="299" width="77" height="38" fill-opacity="0" stroke="#000000" stroke-width="1"/>
<rect x="317" y="275" width="182" height="62" fill-opacity="0" stroke="#000000" stroke-width="1"/>
</g>
<g id="M1">
<rect x="112" y="275" width="183" height="62" fill="#f8eed2" stroke-width="0"/>
<text x="146" y="294" font-family="Arial" font-size="15" font-weight="bold">M1: Who wins?</text>
<line x1="112" y1="299" x2="295" y2="299" stroke="#000000" stroke-width="1"/>
<text x="125" y="316" font-family="Arial" font-size="15">jenny</text>
<text x="125" y="333" font-family="Arial" font-size="15">alice</text>
<text x="183" y="316" font-family="Arial" font-size="15">60.0</text>
<text x="183" y="333" font-family="Arial" font-size="15">40.0</text>
<rect x="218" y="299" width="77" height="38" fill="#c6bea8" stroke-width="0"/>
<line x1="237" y1="300" x2="237" y2="336" stroke="black" stroke-width="1" stroke-dasharray="3,3"/>
<line x1="257" y1="300" x2="257" y2="336" stroke="black" stroke-width="1" stroke-dasharray="3,3"/>
<line x1="276" y1="300" x2="276" y2="336" stroke="black" stroke-width="1" stroke-dasharray="3,3"/>
<rect x="218" y="307" width="46" height="8" fill="#000000" stroke-width="0"/>
<rect x="218" y="324" width="31" height="8" fill="#000000" stroke-width="0"/>
<rect x="218" y="299" width="77" height="38" fill-opacity="0" stroke="#000000" stroke-width="1"/>
<rect x="112" y="275" width="183" height="62" fill-opacity="0" stroke="#000000" stroke-width="1"/>
</g>
<g id="two">
<rect x="298" y="449" width="220" height="62" fill="#6fb7ff" stroke-width="0"/>
<text x="314" y="468" font-family="Arial" font-size="15" font-weight="bold">two: alice wins 2 in a row</text>
<line x1="298" y1="473" x2="518" y2="473" stroke="#000000" stroke-width="1"/>
<text x="311" y="490" font-family="Arial" font-size="15">true</text>
<text x="311" y="507" font-family="Arial" font-size="15">false</text>
<text x="406" y="490" font-family="Arial" font-size="15">32.0</text>
<text x="406" y="507" font-family="Arial" font-size="15">68.0</text>
<rect x="441" y="473" width="77" height="38" fill="#5992cc" stroke-width="0"/>
<line x1="460" y1="474" x2="460" y2="510" stroke="black" stroke-width="1" stroke-dasharray="3,3"/>
<line x1="480" y1="474" x2="480" y2="510" stroke="black" stroke-width="1" stroke-dasharray="3,3"/>
<line x1="499" y1="474" x2="499" y2="510" stroke="black" stroke-width="1" stroke-dasharray="3,3"/>
<rect x="441" y="481" width="25" height="8" fill="#000000" stroke-width="0"/>
<rect x="441" y="498" width="52" height="8" fill="#000000" stroke-width="0"/>
<rect x="441" y="473" width="77" height="38" fill-opacity="0" stroke="#000000" stroke-width="1"/>
<rect x="298" y="449" width="220" height="62" fill-opacity="0" stroke="#000000" stroke-width="1"/>
</g>
<g id="M3">
<rect x="520" y="275" width="183" height="62" fill="#f8eed2" stroke-width="0"/>
<text x="554" y="294" font-family="Arial" font-size="15" font-weight="bold">M3: Who wins?</text>
<line x1="520" y1="299" x2="703" y2="299" stroke="#000000" stroke-width="1"/>
<text x="533" y="316" font-family="Arial" font-size="15">jenny</text>
<text x="533" y="333" font-family="Arial" font-size="15">alice</text>
<text x="591" y="316" font-family="Arial" font-size="15">60.0</text>
<text x="591" y="333" font-family="Arial" font-size="15">40.0</text>
<rect x="626" y="299" width="77" height="38" fill="#c6bea8" stroke-width="0"/>
<line x1="645" y1="300" x2="645" y2="336" stroke="black" stroke-width="1" stroke-dasharray="3,3"/>
<line x1="665" y1="300" x2="665" y2="336" stroke="black" stroke-width="1" stroke-dasharray="3,3"/>
<line x1="684" y1="300" x2="684" y2="336" stroke="black" stroke-width="1" stroke-dasharray="3,3"/>
<rect x="626" y="307" width="46" height="8" fill="#000000" stroke-width="0"/>
<rect x="626" y="324" width="31" height="8" fill="#000000" stroke-width="0"/>
<rect x="626" y="299" width="77" height="38" fill-opacity="0" stroke="#000000" stroke-width="1"/>
<rect x="520" y="275" width="183" height="62" fill-opacity="0" stroke="#000000" stroke-width="1"/>
</g>
<g id="title">
<rect x="240" y="173" width="336" height="62" rx="16" ry="16" fill="#ffb591" stroke-width="0"/>
<rect x="241" y="174" width="334" height="60" rx="16" ry="16" fill-opacity="0" stroke="#000000" stroke-width="2"/>
<text x="261" y="197" font-family="Arial" font-size="22.5">title: THE TENNIS MATCH -</text>
<text x="261" y="225" font-family="Arial" font-size="22.5">Jenny - Carla - Jenny</text>
</g>
<g id="equation">
<rect x="172" y="534" width="484" height="144" rx="12" ry="12" fill="#dbdeb8" stroke-width="0"/>
<rect x="173" y="535" width="482" height="142" rx="12" ry="12" fill-opacity="0" stroke="#000000" stroke-width="2"/>
<text x="189" y="555" font-family="Arial" font-size="17.5">equation: P (two | M1, M2, M3) = </text>
<text x="189" y="601" font-family="Arial" font-size="17.5">(M1 == alice &#38;&#38; M2 == alice) ||</text>
<text x="189" y="624" font-family="Arial" font-size="17.5">(M2 == alice &#38;&#38; M3 == alice)  ? 1 : 0</text>
<text x="189" y="670" font-family="Arial" font-size="17.5">P (M1 | ) = M1 == jenny ? Jenny_skill :  1 - Jenny_skill </text>
</g>
<g id="Jenny_skill">
<rect x="318" y="123" width="192" height="31" rx="16" ry="16" fill="#ffffb4" stroke-width="0"/>
<rect x="319" y="124" width="190" height="29" rx="16" ry="16" fill-opacity="0" stroke="#000000" stroke-width="2"/>
<text x="337" y="145" font-family="Arial" font-size="20">Jenny_skill = 0.6</text>
</g>

</svg>

